<svg width="23" height="31" viewBox="0 0 23 31" fill="none" xmlns="http://www.w3.org/2000/svg">
    <path fill-rule="evenodd" clip-rule="evenodd" d="M7.14007 7.9344L7.16514 13.0814H14.55C15.8616 13.0814 16.9245 12.015 16.9179 10.7034L16.9161 10.3124C16.9097 9.00063 15.8365 7.9344 14.5247 7.9344H8.15102H7.14007ZM17.856 20.9052L17.854 20.492C17.847 19.029 16.6513 17.8411 15.1885 17.8411H14.5739H7.18924L7.21719 23.5563H15.2162C16.679 23.5563 17.8632 22.3664 17.856 20.9052ZM20.1995 15.0626C21.6691 16.4167 22.6009 18.3466 22.6114 20.492L22.6135 20.9052C22.6334 24.9897 19.3252 28.3139 15.2391 28.3139H15.0583L15.0687 30.5H10.3111L10.3004 28.3139H8.35042L8.36111 30.5H3.60347L3.59278 28.3139H2.48217H0.12267L0.0994514 23.5563H2.45896L2.43122 17.8411L2.40779 13.0814L2.38272 7.9344H0.023219L0 3.17491H3.47011L3.45717 0.5H8.21481L8.22775 3.17491H10.1779L10.1648 0.5H14.9226L14.9356 3.19731C18.6708 3.42395 21.6559 6.52338 21.6744 10.3124L21.6763 10.7034C21.6843 12.3454 21.1289 13.8544 20.1995 15.0626Z" fill="white"/>
    <path fill-rule="evenodd" clip-rule="evenodd" d="M7.14007 7.9344L7.16514 13.0814H14.55C15.8616 13.0814 16.9245 12.015 16.9179 10.7034L16.9161 10.3124C16.9097 9.00063 15.8365 7.9344 14.5247 7.9344H8.15102H7.14007ZM17.856 20.9052L17.854 20.492C17.847 19.029 16.6513 17.8411 15.1885 17.8411H14.5739H7.18924L7.21719 23.5563H15.2162C16.679 23.5563 17.8632 22.3664 17.856 20.9052ZM20.1995 15.0626C21.6691 16.4167 22.6009 18.3466 22.6114 20.492L22.6135 20.9052C22.6334 24.9897 19.3252 28.3139 15.2391 28.3139H15.0583L15.0687 30.5H10.3111L10.3004 28.3139H8.35042L8.36111 30.5H3.60347L3.59278 28.3139H2.48217H0.12267L0.0994514 23.5563H2.45896L2.43122 17.8411L2.40779 13.0814L2.38272 7.9344H0.023219L0 3.17491H3.47011L3.45717 0.5H8.21481L8.22775 3.17491H10.1779L10.1648 0.5H14.9226L14.9356 3.19731C18.6708 3.42395 21.6559 6.52338 21.6744 10.3124L21.6763 10.7034C21.6843 12.3454 21.1289 13.8544 20.1995 15.0626Z" fill="#F7931A"/>
</svg>
