<svg width="27" height="28" viewBox="0 0 27 28" fill="none" xmlns="http://www.w3.org/2000/svg">
<path d="M18.0762 20.0421C18.2422 19.7862 16.1016 16.6869 14.8512 18.6144C13.6028 20.5432 17.57 20.8223 18.0762 20.0421Z" fill="white"/>
<path d="M15.8637 18.2466L15.7861 18.1963L14.9561 19.4757L15.0337 19.526L15.8637 18.2466Z" fill="url(#paint0_linear)"/>
<path d="M16.3569 18.4268L16.2793 18.3765L15.4493 19.6558L15.5269 19.7062L16.3569 18.4268Z" fill="url(#paint1_linear)"/>
<path d="M16.8501 18.6075L16.7725 18.5571L15.9425 19.8365L16.0201 19.8869L16.8501 18.6075Z" fill="url(#paint2_linear)"/>
<path d="M17.3452 18.7877L17.2676 18.7373L16.4376 20.0167L16.5152 20.067L17.3452 18.7877Z" fill="url(#paint3_linear)"/>
<path d="M17.8413 18.9693L17.7637 18.9189L16.9337 20.1983L17.0113 20.2487L17.8413 18.9693Z" fill="url(#paint4_linear)"/>
<path d="M18.3354 19.1495L18.2578 19.0991L17.4278 20.3785L17.5054 20.4288L18.3354 19.1495Z" fill="url(#paint5_linear)"/>
<path d="M3.33069 11.6443C4.07329 11.8042 6.1645 11.0659 6.48787 10.7512C6.81334 10.4379 10.4301 7.14595 13.6114 8.24134C16.7928 9.33673 19.423 12.0533 19.0025 13.7534C18.5842 15.4548 21.8578 15.9991 21.3356 18.104C20.8168 20.2082 18.5043 20.6032 18.024 20.2916C17.5416 19.9787 16.5694 17.8162 15.2943 18.6011C14.0191 19.3861 17.5217 19.8853 17.8092 20.191C18.0932 20.4974 18.2587 20.9266 17.6409 20.9281C17.023 20.9296 16.3525 21.0399 15.7892 20.9159C15.2413 20.7959 13.5508 19.6992 12.4837 19.5433C11.4167 19.3875 8.87676 19.5128 7.19013 20.9964C5.5035 22.4799 3.33069 11.6443 3.33069 11.6443Z" fill="url(#paint6_linear)"/>
<path d="M8.44336 15.5312C9.11261 16.3141 8.90618 18.2722 10.4763 19.0583C11.9431 19.7924 12.968 18.8511 13.6822 19.4038C12.8631 18.3926 11.9834 19.6338 10.551 18.7731C9.11873 17.9124 9.27906 16.2045 8.44336 15.5312Z" fill="#7F4601"/>
<path d="M21.3922 17.5932C21.3454 17.3483 19.6834 16.6395 19.0942 17.5477C18.218 18.8984 19.1617 20.2228 19.3623 20.2994C19.5637 20.3794 21.7023 19.3201 21.3922 17.5932Z" fill="url(#paint7_linear)"/>
<path d="M19.6478 18.1781C19.4923 18.11 20.9021 18.1097 20.921 18.4527C20.9385 18.7979 20.4769 19.151 20.3037 19.1102C20.1284 19.068 19.8828 18.2799 19.6478 18.1781Z" fill="black"/>
<path d="M16.4728 12.8516C16.2208 13.0517 16.0022 14.4268 17.3883 14.587C18.7745 14.7472 16.4728 12.8516 16.4728 12.8516Z" fill="url(#paint8_linear)"/>
<path d="M15.9621 12.2106C15.9024 12.9228 16.8152 12.779 17.1464 13.6375C17.5155 14.5981 16.8896 14.8417 17.8002 14.908C18.7108 14.9743 18.5127 13.9338 18.4381 13.7365C18.3621 13.5412 17.0548 11.4175 15.9621 12.2106Z" fill="url(#paint9_linear)"/>
<path d="M16.3187 12.814C16.5969 12.9915 16.961 13.1562 17.1445 13.6358C17.5136 14.5965 16.8877 14.8401 17.7984 14.9064C17.3129 14.6808 17.551 14.3644 17.3658 13.8092C17.0554 12.8866 16.5675 12.9128 16.3187 12.814Z" fill="#301B01"/>
<path d="M14.778 9.8328C14.7874 9.08792 14.9202 8.6168 16.4158 8.3235C18.1182 7.99155 18.8547 5.72172 18.4353 4.89829C16.6537 7.16663 15.9838 5.77841 13.4251 6.72297C12.3124 7.13354 11.4748 8.25005 11.3516 8.65587C11.3265 9.14922 12.7189 10.6456 14.778 9.8328Z" fill="url(#paint10_linear)"/>
<path d="M15.0162 9.80016C14.5142 9.86191 13.7337 10.2198 12.6401 9.82917C11.6364 9.47003 11.331 8.67292 11.2661 8.46986C11.305 8.9749 11.749 9.65932 12.5823 9.97343C13.1899 10.2037 14.1475 10.1425 15.0162 9.80016Z" fill="#7F4601"/>
<path d="M15.043 10.711C14.5478 10.8219 13.8887 11.0707 12.7612 10.7922C11.7268 10.5354 11.1546 9.97045 11.0696 9.77527C11.1611 10.2727 11.8587 10.7133 12.7173 10.9425C13.3455 11.1087 14.2127 11.1409 15.043 10.711Z" fill="#7F4601"/>
<path d="M13.2775 10.7019C13.1687 10.3184 12.6659 7.81369 8.5523 8.08633C7.97862 8.1254 8.01415 8.24978 8.34178 8.60835C8.72847 9.03207 8.93289 11.2388 11.0669 11.6518C13.201 12.0647 13.2775 10.7019 13.2775 10.7019Z" fill="#301B01"/>
<path d="M13.2775 10.7019C13.1687 10.3184 12.6659 7.81369 8.5523 8.08633C7.97862 8.1254 8.01415 8.24978 8.34178 8.60835C8.72847 9.03207 8.93289 11.2388 11.0669 11.6518C13.201 12.0647 13.2775 10.7019 13.2775 10.7019ZM10.9966 11.4065C9.09939 11.0786 8.9538 9.13951 8.61494 8.77067C8.32813 8.45943 8.29973 8.35161 8.81095 8.30777C12.4865 7.99831 12.8933 10.1963 12.9849 10.5329C12.9862 10.5308 12.8959 11.7357 10.9966 11.4065Z" fill="#7F4601"/>
<path d="M13.2782 10.7019C13.2441 10.3042 12.6665 7.81368 8.55298 8.08632C10.5888 8.79314 12.0022 9.36143 12.042 10.4989C12.0584 10.9237 11.7128 11.4565 11.3115 11.6938C11.6014 11.7477 12.2652 11.7075 12.5132 11.633C13.2067 11.3587 13.3042 11.0018 13.2782 10.7019Z" fill="url(#paint11_linear)"/>
<defs>
<linearGradient id="paint0_linear" x1="15.98" y1="17.981" x2="15.1188" y2="19.3085" gradientUnits="userSpaceOnUse">
<stop stop-color="#A4D6E3"/>
<stop offset="1" stop-color="white"/>
</linearGradient>
<linearGradient id="paint1_linear" x1="16.4099" y1="18.2602" x2="15.5486" y2="19.5876" gradientUnits="userSpaceOnUse">
<stop stop-color="#A4D6E3"/>
<stop offset="1" stop-color="white"/>
</linearGradient>
<linearGradient id="paint2_linear" x1="16.8397" y1="18.5398" x2="15.9785" y2="19.8673" gradientUnits="userSpaceOnUse">
<stop stop-color="#A4D6E3"/>
<stop offset="1" stop-color="white"/>
</linearGradient>
<linearGradient id="paint3_linear" x1="17.2714" y1="18.8189" x2="16.4102" y2="20.1464" gradientUnits="userSpaceOnUse">
<stop stop-color="#A4D6E3"/>
<stop offset="1" stop-color="white"/>
</linearGradient>
<linearGradient id="paint4_linear" x1="17.7021" y1="19.0982" x2="16.8409" y2="20.4257" gradientUnits="userSpaceOnUse">
<stop stop-color="#A4D6E3"/>
<stop offset="1" stop-color="white"/>
</linearGradient>
<linearGradient id="paint5_linear" x1="18.1329" y1="19.3773" x2="17.2717" y2="20.7048" gradientUnits="userSpaceOnUse">
<stop stop-color="#A4D6E3"/>
<stop offset="1" stop-color="white"/>
</linearGradient>
<linearGradient id="paint6_linear" x1="18.7534" y1="13.1048" x2="4.61756" y2="17.745" gradientUnits="userSpaceOnUse">
<stop stop-color="#C78534"/>
<stop offset="1" stop-color="#7F4601"/>
</linearGradient>
<linearGradient id="paint7_linear" x1="20.9385" y1="17.2149" x2="18.7709" y2="19.9647" gradientUnits="userSpaceOnUse">
<stop stop-color="#7F4601"/>
<stop offset="1" stop-color="#301B01"/>
</linearGradient>
<linearGradient id="paint8_linear" x1="17.6277" y1="13.3549" x2="16.3736" y2="14.2038" gradientUnits="userSpaceOnUse">
<stop stop-color="#7D4B0E"/>
<stop offset="1" stop-color="white"/>
</linearGradient>
<linearGradient id="paint9_linear" x1="18.1615" y1="13.0351" x2="16.8151" y2="13.6322" gradientUnits="userSpaceOnUse">
<stop stop-color="#C77D23"/>
<stop offset="1" stop-color="#7F4601"/>
</linearGradient>
<linearGradient id="paint10_linear" x1="18.7735" y1="4.18101" x2="12.2003" y2="9.97643" gradientUnits="userSpaceOnUse">
<stop stop-color="white"/>
<stop offset="1" stop-color="#BD9058"/>
</linearGradient>
<linearGradient id="paint11_linear" x1="9.61541" y1="7.32917" x2="12.6595" y2="11.6053" gradientUnits="userSpaceOnUse">
<stop stop-color="#C77D23"/>
<stop offset="1" stop-color="#7F4601"/>
</linearGradient>
</defs>
</svg>
