<svg width="88" height="34" viewBox="0 0 88 34" fill="none" xmlns="http://www.w3.org/2000/svg">
<path d="M0 20.1627C0 27.2776 19.6971 33.0404 43.997 33.0404C68.2969 33.0404 87.994 27.2776 87.994 20.1627V12.8779H0V20.1627Z" fill="#FE6D44"/>
<g style="mix-blend-mode:color-burn">
<path d="M5.12005 12.8779H0V20.1627C0 22.3423 1.85445 24.3962 5.12005 26.1989V12.8779Z" fill="#FD4E34"/>
</g>
<g style="mix-blend-mode:color-burn">
<path d="M8.46084 12.8779H6.89453V27.0855C7.38954 27.3146 7.91411 27.5362 8.46084 27.7579V12.8779Z" fill="#FD4E34"/>
</g>
<g style="mix-blend-mode:color-burn">
<path d="M38.1313 12.8262H28.9551V32.2203C31.8808 32.5306 34.9543 32.7523 38.1313 32.8779V12.8262Z" fill="#FD4E34"/>
</g>
<g style="mix-blend-mode:color-burn">
<path d="M64.1001 12.8262H39.4824V32.9222C40.9527 32.9665 42.4377 32.9887 43.9449 32.9887C51.2076 32.9887 58.0639 32.4715 64.1001 31.5628V12.8262Z" fill="#FD4E34"/>
</g>
<g style="mix-blend-mode:color-burn">
<path d="M68.4302 12.8779H65.6152V31.3781C66.5757 31.2229 67.514 31.0456 68.4302 30.8683V12.8779Z" fill="#FD4E34"/>
</g>
<g style="mix-blend-mode:color-burn">
<path d="M73.7486 12.8779H69.5742V30.6393C71.0371 30.3363 72.4261 30.0039 73.7486 29.6492V12.8779Z" fill="#FD4E34"/>
</g>
<g style="mix-blend-mode:color-burn">
<path d="M83.0342 12.8779H74.582V29.4202C77.9658 28.4597 80.8325 27.3441 83.0342 26.1103V12.8779Z" fill="#FD4E34"/>
</g>
<g style="mix-blend-mode:color-burn">
<path d="M84.8086 12.8779V24.9873C86.8625 23.5022 88.0003 21.8694 88.0003 20.1627V12.8779H84.8086Z" fill="#FD4E34"/>
</g>
<g style="mix-blend-mode:color-burn">
<path d="M27.5973 12.8262H14.5645V29.6935C18.3694 30.6909 22.7802 31.5036 27.6047 32.0652V12.8262H27.5973Z" fill="#FD4E34"/>
</g>
<g style="mix-blend-mode:color-burn">
<path d="M12.3688 12.8262H9.0293V27.9499C10.0637 28.3415 11.1867 28.7183 12.3688 29.0803V12.8262Z" fill="#FD4E34"/>
</g>
<path d="M87.994 12.8777C87.994 19.9926 68.2969 25.7554 43.997 25.7554C19.6971 25.7554 0 19.9926 0 12.8777C0 5.76284 19.6971 0 43.997 0C68.2969 0 87.994 5.76284 87.994 12.8777Z" fill="#FC4131"/>
<path d="M84.9371 12.8773C84.9371 19.4972 66.6068 24.861 43.9988 24.861C21.3908 24.861 3.06055 19.4972 3.06055 12.8773C3.06055 6.25742 21.3908 0.893555 43.9988 0.893555C66.6142 0.893555 84.9371 6.25742 84.9371 12.8773Z" fill="#FE754E"/>
<path d="M77.7092 12.878C77.7092 18.3305 62.615 22.7413 44.004 22.7413C25.3856 22.7413 10.2988 18.3231 10.2988 12.878C10.2988 7.43283 25.393 3.01466 44.004 3.01466C62.615 3.00727 77.7092 7.42544 77.7092 12.878Z" fill="#FE9D70"/>
<path d="M74.4675 12.8786C74.4675 17.8065 60.8288 21.7962 43.9984 21.7962C27.168 21.7962 13.5293 17.8065 13.5293 12.8786C13.5293 7.9506 27.168 3.96094 43.9984 3.96094C60.8288 3.96094 74.4675 7.9506 74.4675 12.8786Z" fill="#FFC292"/>
<path d="M56.0189 12.922C54.0093 12.2866 52.5981 12.0797 48.9705 11.6216V9.43473C49.9383 9.55295 50.9875 9.75982 52.2139 10.1366L53.7655 10.6168L58.7156 8.62202L57.6517 8.28955C56.5878 7.95708 53.6546 7.3808 48.9631 7.14437V5.86621H42.5944V7.11483C40.7326 7.18132 38.3092 7.35124 36.1888 7.8832C32.672 8.75501 32.672 9.86325 32.672 10.2327C32.672 11.0601 34.2531 11.9763 36.6986 12.5674C38.5752 13.018 40.3336 13.2618 42.5501 13.5204V16.2762C40.7178 16.0915 39.0924 15.6778 37.2897 15.2123L35.5608 14.769L31.416 16.9043L32.6425 17.1998C36.6173 18.1529 39.1072 18.4114 42.6018 18.537V20.4432H48.9705V18.5001C51.7559 18.3745 54.0536 18.0346 55.812 17.4879C57.8512 16.8599 58.8486 16.0915 58.8486 15.1385C58.8486 14.2297 57.9176 13.5057 56.0189 12.922ZM40.6513 9.95191C40.6513 9.56772 41.4936 9.37563 42.5575 9.29436V10.8533C41.5527 10.6612 40.6513 10.373 40.6513 9.95191ZM51.0244 15.3084C51.0244 15.7147 50.2265 16.062 48.9705 16.2467V14.3257C49.2069 14.3701 49.4212 14.407 49.5985 14.444C50.5072 14.6287 51.0244 14.939 51.0244 15.3084Z" fill="#FC6641"/>
<path d="M54.6215 12.6485C52.6119 12.0131 51.2008 11.8063 47.5732 11.3482V9.1613C48.541 9.27951 49.5901 9.48638 50.8166 9.86318L52.3681 10.3434L57.3182 8.34859L56.2543 8.01612C55.1904 7.68365 52.2573 7.10736 47.5658 6.87094V5.59277H41.1971V6.84139C39.3353 6.90788 36.9193 7.07781 34.7915 7.60976C31.2747 8.48157 31.2747 9.58981 31.2747 9.95183C31.2747 10.7793 32.8484 11.6955 35.2939 12.2865C37.1705 12.7372 38.9289 12.981 41.1454 13.2396V15.9954C39.3131 15.8107 37.6877 15.397 35.8776 14.9315L34.1487 14.4882L30.0039 16.6234L31.223 16.919C35.1978 17.872 37.6877 18.1306 41.1823 18.2488V20.155H47.551V18.2119C50.3364 18.0863 52.6341 17.7464 54.3925 17.1997C56.4317 16.5717 57.4291 15.8033 57.4291 14.8502C57.4438 13.9563 56.5203 13.2396 54.6215 12.6485ZM39.2466 9.67847C39.2466 9.29428 40.0962 9.10219 41.1528 9.02092V10.5798C40.148 10.3877 39.2466 10.0996 39.2466 9.67847ZM49.6271 15.0349C49.6271 15.4413 48.8292 15.7885 47.5732 15.9732V14.0523C47.8096 14.0893 48.0238 14.1336 48.2011 14.1705C49.1025 14.3552 49.6271 14.6729 49.6271 15.0349Z" fill="#FE754E"/>
<path d="M43.082 6.13867H45.6975V7.34296C51.1204 7.51289 54.1718 8.16305 54.8958 8.39209L52.1843 9.48555C49.6206 8.695 47.5888 8.55463 45.6975 8.43642V11.7094C50.0565 12.2635 51.3125 12.4187 53.2482 13.0245C54.9401 13.5491 55.5755 14.1549 55.5755 14.8494C55.5755 15.5882 54.8958 16.2532 53.0561 16.8221C51.1204 17.4279 48.505 17.6865 45.6975 17.716V19.6148H43.082V17.7604C39.0185 17.6643 36.7429 17.5313 32.4355 16.497L34.6594 15.3518C37.2748 16.0168 39.6908 16.63 43.0303 16.6522V12.8694C40.2228 12.5443 38.4348 12.33 36.4991 11.8646C34.5116 11.3843 33.1596 10.6307 33.1596 9.95101C33.1596 9.61115 33.1596 8.73195 36.0189 8.02268C38.4422 7.41684 41.3458 7.37251 43.0894 7.34296V6.13867H43.082ZM43.0303 8.40687C40.2228 8.40687 37.3635 8.73195 37.3635 9.68503C37.3635 10.6233 40.1193 11.1848 43.0303 11.4139V8.40687ZM45.6975 16.6669C48.9409 16.6226 51.5046 15.9577 51.5046 15.0341C51.5046 14.5096 50.7288 14.0145 49.2807 13.719C48.4089 13.5343 46.6653 13.2683 45.6975 13.1944V16.6669Z" fill="#FFC292"/>
</svg>
