<svg width="89" height="34" viewBox="0 0 89 34" fill="none" xmlns="http://www.w3.org/2000/svg">
<path d="M0.150391 20.1627C0.150391 27.2776 19.8475 33.0404 44.1474 33.0404C68.4473 33.0404 88.1444 27.2776 88.1444 20.1627V12.8779H0.150391V20.1627Z" fill="#E7AF1E"/>
<g style="mix-blend-mode:color-burn">
<path d="M5.27044 12.8779H0.150391V20.1627C0.150391 22.3423 2.00484 24.3962 5.27044 26.1989V12.8779Z" fill="#CBCBCB"/>
</g>
<g style="mix-blend-mode:color-burn">
<path d="M8.61123 12.8779H7.04492V27.0855C7.53993 27.3146 8.0645 27.5362 8.61123 27.7579V12.8779Z" fill="#CBCBCB"/>
</g>
<g style="mix-blend-mode:color-burn">
<path d="M38.2807 12.8262H29.1045V32.2203C32.0302 32.5306 35.1038 32.7523 38.2807 32.8779V12.8262Z" fill="#CBCBCB"/>
</g>
<g style="mix-blend-mode:color-burn">
<path d="M64.2504 12.8262H39.6328V32.9222C41.1031 32.9665 42.5881 32.9887 44.0953 32.9887C51.358 32.9887 58.2142 32.4715 64.2504 31.5628V12.8262Z" fill="#CBCBCB"/>
</g>
<g style="mix-blend-mode:color-burn">
<path d="M68.5805 12.8779H65.7656V31.3781C66.7261 31.2229 67.6644 31.0456 68.5805 30.8683V12.8779Z" fill="#CBCBCB"/>
</g>
<g style="mix-blend-mode:color-burn">
<path d="M73.899 12.8779H69.7246V30.6393C71.1875 30.3363 72.5765 30.0039 73.899 29.6492V12.8779Z" fill="#CBCBCB"/>
</g>
<g style="mix-blend-mode:color-burn">
<path d="M83.1846 12.8779H74.7324V29.4202C78.1162 28.4597 80.9829 27.3441 83.1846 26.1103V12.8779Z" fill="#CBCBCB"/>
</g>
<g style="mix-blend-mode:color-burn">
<path d="M84.959 12.8779V24.9873C87.0129 23.5022 88.1507 21.8694 88.1507 20.1627V12.8779H84.959Z" fill="#CBCBCB"/>
</g>
<g style="mix-blend-mode:color-burn">
<path d="M27.7477 12.8262H14.7148V29.6935C18.5198 30.6909 22.9306 31.5036 27.7551 32.0652V12.8262H27.7477Z" fill="#CBCBCB"/>
</g>
<g style="mix-blend-mode:color-burn">
<path d="M12.5182 12.8262H9.17871V27.9499C10.2131 28.3415 11.3361 28.7183 12.5182 29.0803V12.8262Z" fill="#CBCBCB"/>
</g>
<path d="M88.1444 12.8777C88.1444 19.9926 68.4473 25.7554 44.1474 25.7554C19.8475 25.7554 0.150391 19.9926 0.150391 12.8777C0.150391 5.76284 19.8475 0 44.1474 0C68.4473 0 88.1444 5.76284 88.1444 12.8777Z" fill="#BD8936"/>
<path d="M85.0875 12.8773C85.0875 19.4972 66.7572 24.861 44.1492 24.861C21.5412 24.861 3.21094 19.4972 3.21094 12.8773C3.21094 6.25742 21.5412 0.893555 44.1492 0.893555C66.7646 0.893555 85.0875 6.25742 85.0875 12.8773Z" fill="#E7B142"/>
<path d="M77.8596 12.878C77.8596 18.3305 62.7654 22.7413 44.1544 22.7413C25.536 22.7413 10.4492 18.3231 10.4492 12.878C10.4492 7.43283 25.5434 3.01466 44.1544 3.01466C62.7654 3.00727 77.8596 7.42544 77.8596 12.878Z" fill="#F2CD45"/>
<path d="M74.6179 12.8786C74.6179 17.8065 60.9792 21.7962 44.1488 21.7962C27.3184 21.7962 13.6797 17.8065 13.6797 12.8786C13.6797 7.9506 27.3184 3.96094 44.1488 3.96094C60.9792 3.96094 74.6179 7.9506 74.6179 12.8786Z" fill="#FDE847"/>
<path d="M56.1693 12.922C54.1597 12.2866 52.7485 12.0797 49.1209 11.6216V9.43473C50.0887 9.55295 51.1379 9.75981 52.3643 10.1366L53.9158 10.6168L58.866 8.62202L57.8021 8.28955C56.7382 7.95708 53.805 7.3808 49.1135 7.14437V5.86621H42.7448V7.11483C40.883 7.18132 38.4596 7.35124 36.3392 7.8832C32.8224 8.75501 32.8224 9.86325 32.8224 10.2327C32.8224 11.0601 34.4035 11.9763 36.849 12.5674C38.7256 13.018 40.484 13.2618 42.7005 13.5204V16.2762C40.8682 16.0915 39.2428 15.6778 37.4401 15.2123L35.7112 14.769L31.5664 16.9043L32.7929 17.1998C36.7677 18.1529 39.2576 18.4114 42.7522 18.537V20.4432H49.1209V18.5001C51.9062 18.3745 54.204 18.0346 55.9624 17.4879C58.0015 16.8599 58.999 16.0915 58.999 15.1385C58.999 14.2297 58.068 13.5057 56.1693 12.922ZM40.8017 9.95191C40.8017 9.56772 41.644 9.37563 42.7079 9.29436V10.8533C41.7031 10.6612 40.8017 10.373 40.8017 9.95191ZM51.1748 15.3084C51.1748 15.7147 50.3769 16.062 49.1209 16.2467V14.3257C49.3573 14.3701 49.5716 14.407 49.7489 14.444C50.6576 14.6287 51.1748 14.939 51.1748 15.3084Z" fill="#C7B525"/>
<path d="M54.771 12.6485C52.7613 12.0131 51.3502 11.8063 47.7226 11.3482V9.1613C48.6904 9.27951 49.7396 9.48638 50.966 9.86318L52.5175 10.3434L57.4677 8.34859L56.4038 8.01612C55.3398 7.68365 52.4067 7.10736 47.7152 6.87094V5.59277H41.3465V6.84139C39.4847 6.90788 37.0687 7.07781 34.9409 7.60976C31.4241 8.48157 31.4241 9.58981 31.4241 9.95183C31.4241 10.7793 32.9978 11.6955 35.4433 12.2865C37.3199 12.7372 39.0783 12.981 41.2948 13.2396V15.9954C39.4625 15.8107 37.8371 15.397 36.027 14.9315L34.2981 14.4882L30.1533 16.6234L31.3724 16.919C35.3473 17.872 37.8371 18.1306 41.3317 18.2488V20.155H47.7004V18.2119C50.4858 18.0863 52.7835 17.7464 54.5419 17.1997C56.5811 16.5717 57.5785 15.8033 57.5785 14.8502C57.5933 13.9563 56.6697 13.2396 54.771 12.6485ZM39.396 9.67847C39.396 9.29428 40.2457 9.10219 41.3022 9.02092V10.5798C40.2974 10.3877 39.396 10.0996 39.396 9.67847ZM49.7765 15.0349C49.7765 15.4413 48.9786 15.7885 47.7226 15.9732V14.0523C47.959 14.0893 48.1732 14.1336 48.3506 14.1705C49.2519 14.3552 49.7765 14.6729 49.7765 15.0349Z" fill="#E7B142"/>
<path d="M43.2324 6.13867H45.8478V7.34296C51.2708 7.51289 54.3222 8.16305 55.0462 8.39209L52.3347 9.48555C49.771 8.695 47.7392 8.55463 45.8478 8.43642V11.7094C50.2069 12.2635 51.4629 12.4187 53.3986 13.0245C55.0905 13.5491 55.7259 14.1549 55.7259 14.8494C55.7259 15.5882 55.0462 16.2532 53.2065 16.8221C51.2708 17.4279 48.6554 17.6865 45.8478 17.716V19.6148H43.2324V17.7604C39.1689 17.6643 36.8933 17.5313 32.5859 16.497L34.8098 15.3518C37.4252 16.0168 39.8412 16.63 43.1807 16.6522V12.8694C40.3732 12.5443 38.5852 12.33 36.6495 11.8646C34.662 11.3843 33.31 10.6307 33.31 9.95101C33.31 9.61115 33.31 8.73195 36.1692 8.02268C38.5926 7.41684 41.4962 7.37251 43.2398 7.34296V6.13867H43.2324ZM43.1807 8.40687C40.3732 8.40687 37.5139 8.73195 37.5139 9.68503C37.5139 10.6233 40.2697 11.1848 43.1807 11.4139V8.40687ZM45.8478 16.6669C49.0913 16.6226 51.655 15.9577 51.655 15.0341C51.655 14.5096 50.8792 14.0145 49.4311 13.719C48.5593 13.5343 46.8157 13.2683 45.8478 13.1944V16.6669Z" fill="#FDE847"/>
</svg>
