<svg width="13" height="20" viewBox="0 0 13 20" fill="none" xmlns="http://www.w3.org/2000/svg">
<path d="M12.7085 12.8692C12.7068 11.5972 12.2255 10.6139 11.0727 10.0635C10.3762 9.72843 9.29591 9.4899 8.16769 9.32344L8.16202 5.17144C9.33851 5.52984 9.81969 6.39318 9.82162 7.80918L12.2696 7.80584C12.266 5.18984 11.0637 3.48748 8.1591 3.03545L8.15556 0.443449L7.09956 0.444891L7.10294 2.91689C6.8629 2.89322 6.5989 2.89358 6.3349 2.89394C6.1429 2.8942 5.9509 2.89446 5.78294 2.91869L5.77956 0.446694L4.72356 0.448136L4.72707 3.01613C1.84769 3.47607 0.290023 5.18219 0.292841 7.24619C0.294611 8.54219 0.799823 9.4295 1.61654 9.95639C2.28913 10.3875 3.53759 10.7218 4.73789 10.9361L4.74352 15.0641C3.23097 14.6582 2.84559 13.6507 2.82005 12.5227L0.276052 12.5262C0.278969 14.6622 1.21779 16.7249 4.74644 17.2001L4.74991 19.7441L5.80591 19.7427L5.80254 17.2707C5.99457 17.2944 6.21057 17.2941 6.42657 17.2938C6.66657 17.2935 6.90657 17.2932 7.12254 17.2689L7.12591 19.7409L8.18191 19.7394L8.1784 17.1714C11.4898 16.7349 12.7114 14.9572 12.7085 12.8692ZM6.40972 4.95784C6.64972 4.95751 6.88972 4.95718 7.10575 4.98089L7.11146 9.15688L5.79116 8.94269L5.78576 4.98269C5.97772 4.95843 6.19372 4.95813 6.40972 4.95784ZM3.77454 8.48944C3.24622 8.25016 3.00556 7.77049 3.00458 7.05049C3.00336 6.16249 3.53041 5.46577 4.72999 5.15213L4.7349 8.75213C4.3508 8.68065 4.01467 8.58511 3.77454 8.48944ZM6.37575 15.2299C6.18375 15.2302 5.99175 15.2304 5.79972 15.2067L5.79411 11.1027L7.11434 11.2689L7.11972 15.2049C6.87975 15.2292 6.63975 15.2295 6.37575 15.2299ZM8.17552 15.0594L8.17057 11.4354C8.53067 11.5069 8.86677 11.5785 9.1069 11.6742C9.77922 11.9132 9.99588 12.3929 9.9968 13.0649C9.99811 14.0249 9.54309 14.7456 8.17552 15.0594Z" fill="#F7931A"/>
</svg>
