<svg width="92" height="35" viewBox="0 0 92 35" fill="none" xmlns="http://www.w3.org/2000/svg">
    <path d="M1.95788 24H8.50988C13.1179 24 15.9979 21.144 15.9979 16.08C15.9979 11.064 12.9499 8.208 8.00588 8.208H1.95788V24ZM4.83788 21.6V10.608H8.12588C11.1499 10.608 13.1419 12.48 13.1419 16.08C13.1419 19.704 11.2939 21.6 8.46188 21.6H4.83788ZM24.1682 24.192C27.9602 24.192 30.3842 21.864 30.3842 18.096C30.3842 14.304 27.9602 11.952 24.1682 11.952C20.4002 11.952 17.9762 14.304 17.9762 18.096C17.9762 21.864 20.4002 24.192 24.1682 24.192ZM24.1682 21.984C21.9842 21.984 20.6642 20.496 20.6642 18.096C20.6642 15.672 21.9842 14.16 24.1682 14.16C26.3522 14.16 27.6962 15.672 27.6962 18.096C27.6962 20.496 26.3522 21.984 24.1682 21.984ZM34.8501 24H38.0421L40.7061 15.288H40.7781L43.3461 24H46.6581L50.0901 12.144H47.5461L45.0501 21.312H45.0021L42.2421 12.144H39.5781L36.7461 21.312H36.6981L34.2741 12.144H31.4181L34.8501 24ZM51.9456 24H54.6336V18.264C54.6336 15.672 56.1216 14.256 58.4736 14.256C60.6096 14.256 61.6656 15.312 61.6656 17.184V24H64.3536V16.584C64.3536 13.656 62.5056 11.952 59.5056 11.952C56.7456 11.952 55.2096 13.176 54.5616 15.312H54.5376L54.6336 12.144H51.9456V24Z" fill="#FF453A"/>
    <path d="M87 14.5H85V21.09L73.41 9.5L72 10.91L83.59 22.5H77V24.5H87V14.5Z" fill="#FF453A"/>
</svg>
