<svg width="27" height="28" viewBox="0 0 27 28" fill="none" xmlns="http://www.w3.org/2000/svg">
    <path d="M18.0758 20.0423C18.2418 19.7865 16.1013 16.6872 14.8508 18.6146C13.6024 20.5435 17.5697 20.8226 18.0758 20.0423Z" fill="white"/>
    <path d="M15.864 18.2469L15.7864 18.1965L14.9564 19.4759L15.034 19.5263L15.864 18.2469Z" fill="url(#paint0_linear)"/>
    <path d="M16.3565 18.4271L16.2789 18.3767L15.4489 19.6561L15.5265 19.7064L16.3565 18.4271Z" fill="url(#paint1_linear)"/>
    <path d="M16.8505 18.6075L16.7729 18.5571L15.9429 19.8365L16.0205 19.8869L16.8505 18.6075Z" fill="url(#paint2_linear)"/>
    <path d="M17.3454 18.7879L17.2678 18.7375L16.4378 20.0169L16.5154 20.0673L17.3454 18.7879Z" fill="url(#paint3_linear)"/>
    <path d="M17.8409 18.9695L17.7633 18.9192L16.9333 20.1986L17.0109 20.2489L17.8409 18.9695Z" fill="url(#paint4_linear)"/>
    <path d="M18.3358 19.15L18.2582 19.0996L17.4282 20.379L17.5058 20.4293L18.3358 19.15Z" fill="url(#paint5_linear)"/>
    <path d="M3.33051 11.6446C4.07311 11.8045 6.16431 11.0662 6.48768 10.7515C6.81315 10.4381 10.4299 7.14619 13.6113 8.24158C16.7926 9.33698 19.4228 12.0536 19.0024 13.7536C18.584 15.455 21.8576 15.9994 21.3354 18.1042C20.8167 20.2084 18.5041 20.6034 18.0238 20.2919C17.5414 19.9789 16.5692 17.8164 15.2941 18.6014C14.019 19.3864 17.5215 19.8855 17.809 20.1912C18.093 20.4976 18.2585 20.9269 17.6407 20.9284C17.0228 20.9299 16.3523 21.0402 15.789 20.9162C15.2411 20.7961 13.5506 19.6994 12.4836 19.5436C11.4165 19.3877 8.87658 19.5131 7.18995 20.9966C5.50332 22.4802 3.33051 11.6446 3.33051 11.6446Z" fill="url(#paint6_linear)"/>
    <path d="M8.4436 15.5312C9.11286 16.3141 8.90642 18.2722 10.4765 19.0583C11.9433 19.7924 12.9682 18.8511 13.6824 19.4038C12.8633 18.3926 11.9836 19.6338 10.5513 18.7731C9.11897 17.9124 9.2793 16.2045 8.4436 15.5312Z" fill="#7F4601"/>
    <path d="M21.3929 17.5932C21.3462 17.3483 19.6841 16.6395 19.095 17.5477C18.2187 18.8984 19.1624 20.2228 19.3631 20.2994C19.5645 20.3794 21.703 19.3201 21.3929 17.5932Z" fill="url(#paint7_linear)"/>
    <path d="M19.648 18.1779C19.4925 18.1098 20.9022 18.1095 20.9211 18.4525C20.9386 18.7976 20.477 19.1508 20.3038 19.11C20.1285 19.0678 19.8829 18.2796 19.648 18.1779Z" fill="black"/>
    <path d="M16.4731 12.8519C16.2211 13.052 16.0025 14.427 17.3886 14.5872C18.7748 14.7474 16.4731 12.8519 16.4731 12.8519Z" fill="url(#paint8_linear)"/>
    <path d="M15.9625 12.2104C15.9028 12.9226 16.8156 12.7787 17.1467 13.6372C17.5159 14.5979 16.8899 14.8415 17.8006 14.9078C18.7112 14.9741 18.513 13.9336 18.4385 13.7362C18.3625 13.5409 17.0552 11.4173 15.9625 12.2104Z" fill="url(#paint9_linear)"/>
    <path d="M16.3188 12.8143C16.597 12.9918 16.961 13.1564 17.1446 13.6361C17.5137 14.5967 16.8878 14.8403 17.7984 14.9066C17.313 14.6811 17.551 14.3646 17.3659 13.8094C17.0555 12.8869 16.5676 12.9131 16.3188 12.8143Z" fill="#301B01"/>
    <path d="M14.7783 9.83304C14.7877 9.08817 14.9205 8.61704 16.416 8.32374C18.1184 7.99179 18.8549 5.72196 18.4355 4.89854C16.654 7.16688 15.9841 5.77866 13.4253 6.72322C12.3126 7.13378 11.475 8.2503 11.3518 8.65611C11.3268 9.14947 12.7192 10.6458 14.7783 9.83304Z" fill="url(#paint10_linear)"/>
    <path d="M15.0169 9.80016C14.5149 9.86191 13.7344 10.2198 12.6408 9.82917C11.6371 9.47003 11.3317 8.67292 11.2668 8.46986C11.3057 8.9749 11.7497 9.65932 12.583 9.97343C13.1905 10.2037 14.1481 10.1425 15.0169 9.80016Z" fill="#7F4601"/>
    <path d="M15.0428 10.711C14.5476 10.8219 13.8885 11.0707 12.761 10.7922C11.7266 10.5354 11.1544 9.97045 11.0694 9.77527C11.1609 10.2727 11.8585 10.7133 12.7171 10.9425C13.3453 11.1087 14.2125 11.1409 15.0428 10.711Z" fill="#7F4601"/>
    <path d="M13.2783 10.7019C13.1695 10.3184 12.6666 7.81369 8.55303 8.08633C7.97935 8.1254 8.01488 8.24978 8.34251 8.60835C8.7292 9.03207 8.93362 11.2388 11.0677 11.6518C13.2017 12.0647 13.2783 10.7019 13.2783 10.7019Z" fill="#301B01"/>
    <path d="M13.2783 10.7019C13.1695 10.3184 12.6666 7.81369 8.55303 8.08633C7.97935 8.1254 8.01488 8.24978 8.34251 8.60835C8.7292 9.03207 8.93362 11.2388 11.0677 11.6518C13.2017 12.0647 13.2783 10.7019 13.2783 10.7019ZM10.9973 11.4065C9.10012 11.0786 8.95453 9.13951 8.61568 8.77067C8.32886 8.45943 8.30047 8.35161 8.81168 8.30777C12.4872 7.99831 12.894 10.1963 12.9856 10.5329C12.987 10.5308 12.8966 11.7357 10.9973 11.4065Z" fill="#7F4601"/>
    <path d="M13.2782 10.7019C13.2441 10.3042 12.6665 7.81368 8.55292 8.08632C10.5887 8.79314 12.0021 9.36143 12.042 10.4989C12.0584 10.9237 11.7128 11.4565 11.3115 11.6938C11.6013 11.7477 12.2651 11.7075 12.5131 11.633C13.2066 11.3587 13.3041 11.0018 13.2782 10.7019Z" fill="url(#paint11_linear)"/>
    <defs>
        <linearGradient id="paint0_linear" x1="15.9803" y1="17.9812" x2="15.1191" y2="19.3087" gradientUnits="userSpaceOnUse">
            <stop stop-color="#A4D6E3"/>
            <stop offset="1" stop-color="white"/>
        </linearGradient>
        <linearGradient id="paint1_linear" x1="16.4095" y1="18.2604" x2="15.5483" y2="19.5879" gradientUnits="userSpaceOnUse">
            <stop stop-color="#A4D6E3"/>
            <stop offset="1" stop-color="white"/>
        </linearGradient>
        <linearGradient id="paint2_linear" x1="16.8401" y1="18.5398" x2="15.9789" y2="19.8673" gradientUnits="userSpaceOnUse">
            <stop stop-color="#A4D6E3"/>
            <stop offset="1" stop-color="white"/>
        </linearGradient>
        <linearGradient id="paint3_linear" x1="17.2717" y1="18.8192" x2="16.4105" y2="20.1467" gradientUnits="userSpaceOnUse">
            <stop stop-color="#A4D6E3"/>
            <stop offset="1" stop-color="white"/>
        </linearGradient>
        <linearGradient id="paint4_linear" x1="17.7018" y1="19.0984" x2="16.8405" y2="20.4259" gradientUnits="userSpaceOnUse">
            <stop stop-color="#A4D6E3"/>
            <stop offset="1" stop-color="white"/>
        </linearGradient>
        <linearGradient id="paint5_linear" x1="18.1333" y1="19.3778" x2="17.2721" y2="20.7053" gradientUnits="userSpaceOnUse">
            <stop stop-color="#A4D6E3"/>
            <stop offset="1" stop-color="white"/>
        </linearGradient>
        <linearGradient id="paint6_linear" x1="18.7532" y1="13.1051" x2="4.61738" y2="17.7453" gradientUnits="userSpaceOnUse">
            <stop stop-color="#C78534"/>
            <stop offset="1" stop-color="#7F4601"/>
        </linearGradient>
        <linearGradient id="paint7_linear" x1="20.9392" y1="17.2149" x2="18.7716" y2="19.9647" gradientUnits="userSpaceOnUse">
            <stop stop-color="#7F4601"/>
            <stop offset="1" stop-color="#301B01"/>
        </linearGradient>
        <linearGradient id="paint8_linear" x1="17.628" y1="13.3552" x2="16.3739" y2="14.204" gradientUnits="userSpaceOnUse">
            <stop stop-color="#7D4B0E"/>
            <stop offset="1" stop-color="white"/>
        </linearGradient>
        <linearGradient id="paint9_linear" x1="18.1619" y1="13.0349" x2="16.8154" y2="13.6319" gradientUnits="userSpaceOnUse">
            <stop stop-color="#C77D23"/>
            <stop offset="1" stop-color="#7F4601"/>
        </linearGradient>
        <linearGradient id="paint10_linear" x1="18.7737" y1="4.18125" x2="12.2006" y2="9.97667" gradientUnits="userSpaceOnUse">
            <stop stop-color="white"/>
            <stop offset="1" stop-color="#BD9058"/>
        </linearGradient>
        <linearGradient id="paint11_linear" x1="9.61535" y1="7.32917" x2="12.6594" y2="11.6053" gradientUnits="userSpaceOnUse">
            <stop stop-color="#C77D23"/>
            <stop offset="1" stop-color="#7F4601"/>
        </linearGradient>
    </defs>
</svg>
