<svg width="112" height="12" viewBox="0 0 112 12" fill="none" xmlns="http://www.w3.org/2000/svg">
<path d="M0.296 11H7.48C10.2 11 11.352 9.736 11.352 7.896C11.352 6.76 10.552 5.72 9 5.496V5.48C10.184 5.192 10.776 4.264 10.776 3.208C10.776 1.704 9.736 0.471999 6.76 0.471999H0.296V11ZM1.336 5.144V1.4H6.68C9.096 1.4 9.832 2.312 9.832 3.336C9.832 4.312 9.064 5.144 7.448 5.144H1.336ZM1.336 10.072V5.992H7.576C9.432 5.992 10.36 6.84 10.36 7.816C10.36 9.144 9.496 10.072 7.224 10.072H1.336ZM14.5071 11H15.5631V0.471999H14.5071V11ZM23.4251 11H24.4811V1.4H29.5691V0.471999H18.3371V1.4H23.4251V11ZM37.237 11.192C41.285 11.192 43.077 9 43.077 7.112V7.016H42.085V7.08C42.085 8.632 40.549 10.264 37.237 10.264C33.397 10.264 31.909 8.04 31.909 5.752C31.909 3.096 33.749 1.208 37.173 1.208C40.709 1.208 42.005 3.144 42.005 4.408V4.472H42.997V4.36C42.997 2.76 41.461 0.28 37.141 0.28C33.045 0.28 30.853 2.712 30.853 5.752C30.853 8.44 32.549 11.192 37.237 11.192ZM50.6393 11H51.6953V6.632L58.0473 0.471999H56.6073L51.2313 5.736H51.1993L45.8073 0.471999H44.3033L50.6393 6.632V11Z" fill="#F7931A"/>
<path d="M60.3526 11H67.2806C71.1526 11 72.0486 9.624 72.0486 7.912C72.0486 6.968 71.4886 5.816 69.7126 5.512V5.496C71.1206 5.128 71.5206 4.104 71.5206 3.256C71.5206 2.024 70.9286 0.471999 67.0406 0.471999H60.3526V11ZM63.4246 4.744V2.584H66.9286C68.3526 2.584 68.8486 3.048 68.8486 3.656C68.8486 4.328 68.4006 4.744 67.1206 4.744H63.4246ZM63.4246 8.904V6.536H67.2006C68.6246 6.536 69.1366 7.064 69.1366 7.64C69.1366 8.408 68.6886 8.904 67.1366 8.904H63.4246ZM74.4845 11H84.5965V8.728H77.5565V6.6H82.8365V4.808H77.5565V2.744H84.4365V0.471999H74.4845V11ZM90.6546 11H93.7266V2.744H97.8706V0.471999H86.5106V2.744H90.6546V11ZM105.65 11.192C111.074 11.192 111.97 9.224 111.97 7.56C111.97 6.552 111.394 5.72 110.386 5.304C109.49 4.936 108.178 4.808 106.642 4.712C105.458 4.632 103.874 4.568 103.298 4.392C102.85 4.248 102.626 4.008 102.626 3.608C102.626 2.856 103.506 2.392 105.618 2.392C107.794 2.392 108.738 2.952 108.738 3.912H111.49C111.49 2.008 110.626 0.28 105.618 0.28C101.442 0.28 99.5544 1.88 99.5544 3.832C99.5544 4.856 100.066 5.608 100.834 6.008C101.698 6.456 103.234 6.632 104.626 6.712C105.794 6.776 107.41 6.84 108.066 6.984C108.626 7.112 108.898 7.368 108.898 7.8C108.898 8.52 108.434 9.08 105.65 9.08C103.01 9.08 102.37 8.36 102.37 7.464H99.6184C99.6184 8.872 100.178 11.192 105.65 11.192Z" fill="white"/>
</svg>
