<svg width="124" height="12" viewBox="0 0 124 12" fill="none" xmlns="http://www.w3.org/2000/svg">
<path d="M5.616 11H6.736L10.896 2.088H10.928L15.04 11H16.144L21.328 0.471999H20.224L15.648 9.768H15.616L11.456 0.695999H10.432L6.224 9.768H6.192L1.6 0.471999H0.432L5.616 11ZM24.0852 11H25.1412V0.471999H24.0852V11ZM28.7473 11H29.7553V1.352H29.7713L39.7873 11H40.8273V0.471999H39.8193V9.576H39.7873L30.3153 0.471999H28.7473V11ZM85.428 11H95.748V10.072H86.612C86.628 9.368 86.964 9.128 90.452 8.024C94.5 6.728 95.46 5.656 95.46 3.736C95.46 2.232 94.26 0.311999 90.676 0.311999C87.172 0.311999 85.556 2.136 85.556 4.216C85.556 4.808 85.62 5.272 85.684 5.496H86.692C86.628 5.272 86.548 4.808 86.548 4.296C86.548 2.568 87.876 1.24 90.676 1.24C93.412 1.24 94.42 2.6 94.42 3.768C94.42 5.176 93.908 5.992 89.956 7.256C85.892 8.552 85.428 9.064 85.428 11ZM107.009 11H108.065V8.488H110.513V7.56H108.065V0.471999H106.929L98.7209 7.496V8.488H107.009V11ZM99.9689 7.56V7.544L106.993 1.528H107.009V7.56H99.9689ZM115.038 11H116.254C117.454 7.528 120.014 4.04 123.678 1.368V0.471999H112.622V1.4H122.286V1.416C119.278 3.72 116.27 7.432 115.038 11Z" fill="#F7931A"/>
<path d="M43.9951 11H50.9231C54.7951 11 55.6911 9.624 55.6911 7.912C55.6911 6.968 55.1311 5.816 53.3551 5.512V5.496C54.7631 5.128 55.1631 4.104 55.1631 3.256C55.1631 2.024 54.5711 0.471999 50.6831 0.471999H43.9951V11ZM47.0671 4.744V2.584H50.5711C51.9951 2.584 52.4911 3.048 52.4911 3.656C52.4911 4.328 52.0431 4.744 50.7631 4.744H47.0671ZM47.0671 8.904V6.536H50.8431C52.2671 6.536 52.7791 7.064 52.7791 7.64C52.7791 8.408 52.3311 8.904 50.7791 8.904H47.0671ZM61.4465 11H64.5185V2.744H68.6625V0.471999H57.3025V2.744H61.4465V11ZM76.5781 11.192C81.0741 11.192 82.7381 8.936 82.7381 6.888C82.7381 6.856 82.7381 6.744 82.7221 6.664H79.9861V6.76C79.9861 7.928 78.8821 8.92 76.7061 8.92C74.1621 8.92 73.1701 7.432 73.1701 5.752C73.1701 3.944 74.3861 2.552 76.6901 2.552C78.9621 2.552 79.9381 3.784 79.9381 4.76V4.824H82.6741C82.6901 4.728 82.6901 4.6 82.6901 4.568C82.6901 2.808 81.1861 0.28 76.5461 0.28C72.1621 0.28 69.9381 2.632 69.9381 5.752C69.9381 8.472 71.5861 11.192 76.5781 11.192Z" fill="white"/>
</svg>
