<svg width="35" height="24" viewBox="0 0 35 24" fill="none" xmlns="http://www.w3.org/2000/svg">
<rect x="1.46094" y="0.5" width="33" height="23" rx="3.5" stroke="#D9D9D9"/>
<path fill-rule="evenodd" clip-rule="evenodd" d="M18.1399 16.8292C16.9559 17.8273 15.42 18.4298 13.7416 18.4298C9.99676 18.4298 6.96094 15.4301 6.96094 11.7298C6.96094 8.02948 9.99676 5.02979 13.7416 5.02979C15.42 5.02979 16.9559 5.63228 18.1399 6.63033C19.324 5.63228 20.8599 5.02979 22.5382 5.02979C26.2831 5.02979 29.3189 8.02948 29.3189 11.7298C29.3189 15.4301 26.2831 18.4298 22.5382 18.4298C20.8599 18.4298 19.324 17.8273 18.1399 16.8292Z" fill="#ED0006"/>
<path fill-rule="evenodd" clip-rule="evenodd" d="M18.1406 16.8292C19.5986 15.6003 20.523 13.7717 20.523 11.7298C20.523 9.68783 19.5986 7.85923 18.1406 6.63032C19.3247 5.63228 20.8606 5.02979 22.5389 5.02979C26.2838 5.02979 29.3196 8.02948 29.3196 11.7298C29.3196 15.4301 26.2838 18.4298 22.5389 18.4298C20.8606 18.4298 19.3247 17.8273 18.1406 16.8292Z" fill="#F9A000"/>
<path fill-rule="evenodd" clip-rule="evenodd" d="M18.1402 16.8292C19.5981 15.6003 20.5226 13.7717 20.5226 11.7298C20.5226 9.68787 19.5981 7.85927 18.1402 6.63037C16.6823 7.85927 15.7578 9.68787 15.7578 11.7298C15.7578 13.7717 16.6823 15.6003 18.1402 16.8292Z" fill="#FF5E00"/>
</svg>
