<svg width="16" height="21" viewBox="0 0 16 21" fill="none" xmlns="http://www.w3.org/2000/svg">
<path fill-rule="evenodd" clip-rule="evenodd" d="M4.75993 5.45626L4.77664 8.8876H9.69989C10.5743 8.8876 11.2829 8.17665 11.2785 7.30227L11.2773 7.04159C11.273 6.16708 10.5576 5.45626 9.68304 5.45626H5.4339H4.75993ZM11.9045 14.1035L11.9031 13.828C11.8985 12.8527 11.1013 12.0607 10.1261 12.0607H9.71641H4.79329L4.81192 15.8709H10.1446C11.1198 15.8709 11.9093 15.0776 11.9045 14.1035ZM13.4663 10.2084C14.4461 11.1112 15.0673 12.3977 15.0743 13.828L15.0756 14.1035C15.0889 16.8265 12.8835 19.0426 10.1594 19.0426H10.0388L10.0458 20.5H6.87406L6.86694 19.0426H5.56695L5.57407 20.5H2.40231L2.39519 19.0426H1.65478H0.0817803L0.0663009 15.8709H1.6393L1.62081 12.0607L1.60519 8.88761L1.58848 5.45627H0.0154793L0 2.28328H2.31341L2.30478 0.5H5.47654L5.48517 2.28328H6.7853L6.77653 0.5H9.94842L9.95705 2.29821C12.4472 2.4493 14.4373 4.51559 14.4496 7.0416L14.4509 7.30228C14.4562 8.39693 14.0859 9.40295 13.4663 10.2084Z" fill="white"/>
<path fill-rule="evenodd" clip-rule="evenodd" d="M4.75993 5.45626L4.77664 8.8876H9.69989C10.5743 8.8876 11.2829 8.17665 11.2785 7.30227L11.2773 7.04159C11.273 6.16708 10.5576 5.45626 9.68304 5.45626H5.4339H4.75993ZM11.9045 14.1035L11.9031 13.828C11.8985 12.8527 11.1013 12.0607 10.1261 12.0607H9.71641H4.79329L4.81192 15.8709H10.1446C11.1198 15.8709 11.9093 15.0776 11.9045 14.1035ZM13.4663 10.2084C14.4461 11.1112 15.0673 12.3977 15.0743 13.828L15.0756 14.1035C15.0889 16.8265 12.8835 19.0426 10.1594 19.0426H10.0388L10.0458 20.5H6.87406L6.86694 19.0426H5.56695L5.57407 20.5H2.40231L2.39519 19.0426H1.65478H0.0817803L0.0663009 15.8709H1.6393L1.62081 12.0607L1.60519 8.88761L1.58848 5.45627H0.0154793L0 2.28328H2.31341L2.30478 0.5H5.47654L5.48517 2.28328H6.7853L6.77653 0.5H9.94842L9.95705 2.29821C12.4472 2.4493 14.4373 4.51559 14.4496 7.0416L14.4509 7.30228C14.4562 8.39693 14.0859 9.40295 13.4663 10.2084Z" fill="#F7931A"/>
</svg>
