<svg width="58" height="35" viewBox="0 0 58 35" fill="none" xmlns="http://www.w3.org/2000/svg">
    <path d="M8.52109 24.24C12.7691 24.24 15.4331 21.84 15.4331 18.048V8.208H12.8651V18C12.8651 20.4 11.2331 21.768 8.64109 21.768C6.07309 21.768 4.41709 20.4 4.41709 18V8.208H1.56109V18.048C1.56109 21.84 4.24909 24.24 8.52109 24.24ZM18.2949 28.752H20.9829V24.096C20.9829 23.616 20.9349 22.392 20.9109 21.6H20.9349C21.4389 23.136 22.9749 24.192 25.3269 24.192C28.7349 24.192 30.8949 21.696 30.8949 17.856C30.8949 14.28 28.7589 11.952 25.3749 11.952C23.0229 11.952 21.4389 13.104 20.9589 14.904H20.9349L20.9829 12.144H18.2949V28.752ZM24.7989 21.984C22.4949 21.984 20.9829 20.688 20.9829 18.672V18.048C21.0309 15.672 22.5189 14.16 24.7509 14.16C26.8869 14.16 28.2069 15.648 28.2069 17.928C28.2069 20.4 26.8629 21.984 24.7989 21.984Z" fill="#32D74B"/>
    <path d="M43 10.5V12.5H49.59L38 24.09L39.41 25.5L51 13.91V20.5H53V10.5H43Z" fill="#32D74B"/>
</svg>
