<svg width="35" height="24" viewBox="0 0 35 24" fill="none" xmlns="http://www.w3.org/2000/svg">
<rect x="1.46094" y="0.5" width="33" height="23" rx="3.5" stroke="#D9D9D9"/>
<path fill-rule="evenodd" clip-rule="evenodd" d="M11.712 15.8583H9.65223L8.10767 9.79247C8.03436 9.51344 7.8787 9.26676 7.64973 9.1505C7.07831 8.85833 6.44863 8.6258 5.76172 8.50853V8.27499H9.0798C9.53774 8.27499 9.8812 8.6258 9.93844 9.03323L10.7398 13.4087L12.7986 8.27499H14.8011L11.712 15.8583ZM15.9459 15.8583H14.0007L15.6025 8.27499H17.5477L15.9459 15.8583ZM20.0644 10.3758C20.1217 9.96738 20.4651 9.73384 20.8658 9.73384C21.4955 9.6752 22.1814 9.79248 22.7538 10.0836L23.0973 8.45091C22.5249 8.21737 21.8952 8.1001 21.3238 8.1001C19.4358 8.1001 18.0619 9.1505 18.0619 10.6083C18.0619 11.7174 19.0351 12.2997 19.722 12.6505C20.4651 13.0003 20.7513 13.2338 20.6941 13.5836C20.6941 14.1083 20.1217 14.3419 19.5502 14.3419C18.8633 14.3419 18.1764 14.167 17.5477 13.8748L17.2043 15.5086C17.8912 15.7997 18.6344 15.917 19.3213 15.917C21.4383 15.9746 22.7538 14.9252 22.7538 13.3501C22.7538 11.3666 20.0644 11.2503 20.0644 10.3758ZM29.5617 15.8583L28.0172 8.27499H26.3581C26.0147 8.27499 25.6712 8.50853 25.5567 8.85833L22.6966 15.8583H24.6991L25.0988 14.7503H27.5592L27.7882 15.8583H29.5617ZM26.6443 10.3172L27.2158 13.1752H25.614L26.6443 10.3172Z" fill="white"/>
</svg>
