<svg width="229" height="229" viewBox="0 0 229 229" fill="none" xmlns="http://www.w3.org/2000/svg">
<path d="M229 114.218C229 177.297 177.736 228.448 114.506 228.448C51.2635 228.437 0 177.297 0 114.218C0 52.9644 48.3146 2.97604 109.019 0.12542C110.837 0.04561 112.677 0 114.506 0C116.346 0 118.163 0.0342 119.981 0.12542C180.674 2.97604 229 52.9644 229 114.218Z" fill="url(#paint0_linear)"/>
<path d="M114.506 226.681C176.767 226.681 227.24 176.33 227.24 114.219C227.24 52.1075 176.767 1.75635 114.506 1.75635C52.2442 1.75635 1.77148 52.1075 1.77148 114.219C1.77148 176.33 52.2442 226.681 114.506 226.681V226.681Z" fill="#F7931A"/>
<path d="M114.505 211.185C168.188 211.185 211.706 167.772 211.706 114.218C211.706 60.6653 168.188 17.252 114.505 17.252C60.8229 17.252 17.3047 60.6653 17.3047 114.218C17.3047 167.772 60.8229 211.185 114.505 211.185Z" fill="url(#paint1_linear)"/>
<path d="M181.932 181.482C190.824 172.611 197.591 162.417 202.231 151.539L114.506 114.219L151.928 201.744C162.821 197.104 173.039 190.353 181.932 181.482ZM47.0692 181.482C55.9617 190.353 66.1802 197.104 77.0844 201.733L114.506 114.219L26.7695 151.551C31.4101 162.417 38.1767 172.611 47.0692 181.482V181.482ZM47.0692 46.9446C38.1767 55.8157 31.4101 66.0095 26.7695 76.8875L114.506 114.219L77.0844 26.6938C66.1802 31.3346 55.9617 38.0735 47.0692 46.9446V46.9446ZM181.932 46.9446C173.039 38.0735 162.821 31.3232 151.917 26.6938L114.506 114.219L202.243 76.8875C197.591 66.0095 190.824 55.8157 181.932 46.9446V46.9446Z" fill="#FF453A"/>
<path d="M181.932 181.482C190.824 172.611 197.591 162.417 202.231 151.539L114.506 114.219L151.928 201.744C162.821 197.104 173.039 190.353 181.932 181.482ZM47.0692 181.482C55.9617 190.353 66.1802 197.104 77.0844 201.733L114.506 114.219L26.7695 151.551C31.4101 162.417 38.1767 172.611 47.0692 181.482V181.482ZM47.0692 46.9446C38.1767 55.8157 31.4101 66.0095 26.7695 76.8875L114.506 114.219L77.0844 26.6938C66.1802 31.3346 55.9617 38.0735 47.0692 46.9446V46.9446ZM181.932 46.9446C173.039 38.0735 162.821 31.3232 151.917 26.6938L114.506 114.219L202.243 76.8875C197.591 66.0095 190.824 55.8157 181.932 46.9446V46.9446Z" fill="#CC0B00"/>
<path d="M151.733 202.211L114.506 115.131L77.2783 202.211L76.9468 202.074C65.6768 197.285 55.5499 190.444 46.8173 181.744C38.0962 173.044 31.2382 162.93 26.4376 151.687L26.3005 151.356L113.58 114.218L26.2891 77.0805L26.4262 76.7499C31.2268 65.507 38.0848 55.4045 46.8059 46.693C55.527 37.9929 65.6654 31.1514 76.9354 26.3624L77.2668 26.2256L114.494 113.306L151.722 26.2256L152.053 26.3624C163.323 31.1514 173.45 37.9929 182.183 46.693C190.904 55.3931 197.762 65.507 202.562 76.7499L202.7 77.0805L202.368 77.2174L115.42 114.218L202.711 151.356L202.574 151.687C197.773 162.93 190.915 173.032 182.194 181.744C173.473 190.444 163.335 197.285 152.065 202.074L151.733 202.211V202.211ZM115.18 114.902L152.11 201.265C163.163 196.521 173.107 189.782 181.68 181.231C190.252 172.679 197.007 162.759 201.762 151.732L115.18 114.902V114.902ZM27.2378 151.732C31.9926 162.759 38.7478 172.679 47.3203 181.231C55.8928 189.782 65.8368 196.521 76.8897 201.265L113.82 114.902L27.2378 151.732ZM27.2378 76.6928L113.82 113.534L76.8897 27.172C65.8368 31.9154 55.8928 38.6543 47.3203 47.2061C38.7592 55.7579 32.0041 65.6781 27.2378 76.6928V76.6928ZM115.18 113.534L201.751 76.6928C196.996 65.6667 190.241 55.7465 181.668 47.1947C173.096 38.6429 163.152 31.904 152.099 27.1606L115.18 113.534V113.534Z" fill="url(#paint2_linear)"/>
<path d="M200.389 155.586C206.458 143.077 209.853 129.041 209.853 114.218C209.853 99.3945 206.447 85.3581 200.389 72.8496C201.029 74.1837 201.646 75.5292 202.229 76.8861L114.504 114.218L202.241 151.549C201.658 152.906 201.04 154.252 200.389 155.586V155.586Z" fill="white"/>
<path d="M29.1086 72.8496C23.0392 85.3581 19.6445 99.3945 19.6445 114.218C19.6445 129.041 23.0507 143.077 29.1086 155.586C28.4685 154.252 27.8513 152.906 27.2683 151.549L115.005 114.218L27.2683 76.8861C27.8513 75.5292 28.4571 74.1837 29.1086 72.8496V72.8496Z" fill="white"/>
<path d="M155.959 28.5286C143.421 22.4739 129.35 19.0874 114.491 19.0874C99.6325 19.0874 85.5621 22.4853 73.0234 28.5286C74.3607 27.8901 75.7095 27.2744 77.0697 26.6928L114.503 114.218L151.925 26.6928C153.273 27.2744 154.622 27.8787 155.959 28.5286Z" fill="white"/>
<path d="M152.916 201.732L115.505 114.218L78.0833 201.744C76.7232 201.162 75.3744 200.558 74.0371 199.908C86.5758 205.962 100.646 209.349 115.505 209.349C130.364 209.349 144.434 205.951 156.973 199.908C155.624 200.546 154.276 201.162 152.916 201.732V201.732Z" fill="white"/>
<path d="M90.6728 216.236C91.05 214.332 92.9131 213.089 94.8219 213.465C96.7307 213.841 97.9766 215.7 97.5994 217.604C97.2222 219.508 95.3705 220.751 93.4503 220.375C91.5415 219.999 90.2956 218.14 90.6728 216.236Z" fill="#27273F"/>
<path d="M131.615 217.571C131.237 215.667 132.472 213.808 134.381 213.432C136.29 213.044 138.153 214.287 138.53 216.191C138.918 218.095 137.673 219.954 135.764 220.33C133.866 220.706 132.003 219.475 131.615 217.571Z" fill="#27273F"/>
<path d="M59.0356 25.2677C60.1214 26.8868 59.6871 29.0647 58.064 30.1479C56.441 31.2312 54.2578 30.7979 53.172 29.1787C52.0861 27.5596 52.5205 25.3817 54.1435 24.2985C55.7552 23.2152 57.9497 23.6485 59.0356 25.2677V25.2677Z" fill="#27273F"/>
<path d="M29.1336 53.2158C30.7566 54.2991 31.191 56.4769 30.1165 58.0961C29.0421 59.7152 26.8476 60.1485 25.2245 59.0767C23.6014 57.9934 23.1671 55.8156 24.2415 54.1964C25.3159 52.5773 27.5105 52.1326 29.1336 53.2158Z" fill="#27273F"/>
<path d="M12.2281 90.4446C14.137 90.8209 15.3828 92.6795 15.0056 94.5837C14.6284 96.4879 12.7654 97.7308 10.8565 97.3545C8.94773 96.9782 7.70186 95.1196 8.07905 93.2154C8.46767 91.3112 10.3193 90.0683 12.2281 90.4446V90.4446Z" fill="#27273F"/>
<path d="M10.902 131.3C12.8108 130.924 14.6739 132.155 15.0511 134.059C15.4397 135.964 14.1938 137.822 12.285 138.199C10.3762 138.575 8.51313 137.343 8.13594 135.439C7.74732 133.535 8.98176 131.676 10.902 131.3V131.3Z" fill="#27273F"/>
<path d="M25.3388 169.543C26.9505 168.459 29.145 168.893 30.2309 170.512C31.3167 172.131 30.8824 174.309 29.2593 175.392C27.6363 176.475 25.4531 176.042 24.3673 174.423C23.2814 172.815 23.7158 170.626 25.3388 169.543Z" fill="#27273F"/>
<path d="M53.355 199.372C54.4294 197.753 56.624 197.32 58.247 198.391C59.8701 199.463 60.3044 201.653 59.23 203.272C58.1442 204.891 55.961 205.324 54.338 204.252C52.7035 203.18 52.2691 200.991 53.355 199.372Z" fill="#27273F"/>
<path d="M169.963 203.158C168.877 201.539 169.311 199.361 170.935 198.277C172.558 197.194 174.741 197.628 175.827 199.247C176.912 200.866 176.478 203.044 174.855 204.127C173.243 205.21 171.049 204.777 169.963 203.158Z" fill="#27273F"/>
<path d="M199.863 175.222C198.24 174.138 197.806 171.96 198.88 170.341C199.955 168.722 202.149 168.289 203.772 169.361C205.395 170.444 205.83 172.622 204.755 174.241C203.681 175.86 201.486 176.293 199.863 175.222Z" fill="#27273F"/>
<path d="M216.769 137.981C214.86 137.605 213.614 135.746 213.991 133.842C214.368 131.938 216.22 130.695 218.14 131.071C220.049 131.447 221.295 133.306 220.918 135.21C220.541 137.126 218.677 138.369 216.769 137.981Z" fill="#27273F"/>
<path d="M218.105 97.1383C216.196 97.5146 214.333 96.2831 213.956 94.3789C213.567 92.4747 214.813 90.6161 216.722 90.2398C218.631 89.8521 220.494 91.095 220.871 92.9992C221.248 94.9034 220.014 96.7506 218.105 97.1383Z" fill="#27273F"/>
<path d="M203.66 58.8828C202.037 59.966 199.842 59.5327 198.768 57.9136C197.682 56.2944 198.116 54.1166 199.739 53.0333C201.362 51.9501 203.545 52.3834 204.631 54.0025C205.717 55.6103 205.283 57.7996 203.66 58.8828Z" fill="#27273F"/>
<path d="M175.654 29.0539C174.568 30.6731 172.385 31.1064 170.762 30.0346C169.139 28.9513 168.704 26.7734 169.779 25.1543C170.864 23.5352 173.048 23.1019 174.671 24.1737C176.294 25.2569 176.728 27.4348 175.654 29.0539Z" fill="#27273F"/>
<path d="M138.324 12.2009C137.947 14.1051 136.084 15.348 134.175 14.9717C132.266 14.5954 131.02 12.7368 131.397 10.8326C131.775 8.92839 133.626 7.68552 135.546 8.0618C137.467 8.43808 138.701 10.2853 138.324 12.2009Z" fill="#27273F"/>
<path d="M97.3827 10.8664C97.7599 12.7706 96.5254 14.6292 94.6166 15.0054C92.7078 15.3931 90.8447 14.1503 90.4675 12.246C90.0789 10.3418 91.3248 8.48324 93.2336 8.10696C95.1424 7.71927 96.994 8.95074 97.3827 10.8664V10.8664Z" fill="#27273F"/>
<path d="M108.963 54.4609H117.89V56.9809H110.917V58.6342H108.963V54.4609V54.4609Z" fill="#27273F"/>
<path d="M112.596 43.4803C112.204 42.7348 111.516 42.2651 110.381 42.388C108.828 42.5494 108.321 43.828 108.194 45.516L106.041 45.539L106.055 46.8507L108.148 46.8283C108.151 47.1691 108.164 47.5182 108.176 47.8673L106.066 47.8898L106.08 49.2015L108.233 49.1785C108.252 49.6606 108.251 50.2224 108.261 51.8104L109.661 51.7955C109.632 50.7601 109.559 50.2174 110.224 50.0858L116.117 50.023C116.646 50.0964 116.574 50.5189 116.567 51.4578L118.133 51.7052C118.108 49.3135 118.114 49.0732 118.114 49.0732L119.957 49.0535L119.943 47.7418L118.125 47.7612C118.13 47.4034 118.126 47.0542 118.123 46.722L119.932 46.7027L119.918 45.391L118.075 45.4107C117.932 43.2144 117.361 41.7514 115.283 41.5776C113.616 41.442 112.882 42.2336 112.596 43.4803ZM109.713 47.8253C109.705 47.0843 109.45 44.77 110.995 44.7536C112.473 44.7378 112.327 47.0563 112.335 47.7974L109.713 47.8253ZM116.536 47.7526L113.65 47.7834C113.64 46.8976 113.364 44.1876 115.055 44.1696C116.686 44.1522 116.527 46.8668 116.536 47.7526Z" fill="#F7931A"/>
<path d="M175.171 113.259C175.788 113.744 176.127 114.403 176.169 115.259C176.195 115.807 176.084 116.327 175.822 116.798C175.559 117.28 175.144 117.666 174.577 117.968C174.009 118.27 173.298 118.442 172.444 118.483C171.817 118.514 171.187 118.464 170.577 118.345C169.954 118.226 169.42 118.035 168.962 117.771L169.77 115.832C170.134 116.055 170.542 116.219 170.969 116.324C171.409 116.428 171.833 116.476 172.266 116.455C172.699 116.434 173.036 116.338 173.29 116.153C173.545 115.981 173.658 115.735 173.643 115.439C173.629 115.142 173.493 114.919 173.235 114.783C172.977 114.647 172.518 114.589 171.88 114.62L169.466 114.737L169.658 109.51L175.329 109.235L175.424 111.187L171.836 111.361L171.785 112.668L172.378 112.64C173.607 112.568 174.542 112.775 175.171 113.259V113.259Z" fill="#27273F"/>
<path d="M186.599 113.576C187.349 113.192 187.826 112.509 187.715 111.373C187.57 109.818 186.297 109.297 184.611 109.152V107H183.299V109.092C182.958 109.092 182.609 109.101 182.26 109.11V107H180.948V109.152C180.466 109.167 179.904 109.16 178.316 109.152V110.553C179.352 110.535 179.895 110.468 180.02 111.134V117.027C179.94 117.555 179.519 117.479 178.58 117.462L178.316 119.025C180.708 119.025 180.948 119.034 180.948 119.034V120.877H182.26V119.059C182.617 119.068 182.967 119.068 183.299 119.068V120.877H184.611V119.034C186.808 118.914 188.277 118.359 188.473 116.284C188.627 114.618 187.843 113.875 186.599 113.576ZM182.285 110.647C183.026 110.647 185.343 110.416 185.343 111.962C185.343 113.44 183.026 113.269 182.285 113.269V110.647ZM182.285 117.471V114.584C183.171 114.584 185.884 114.336 185.884 116.028C185.884 117.659 183.171 117.471 182.285 117.471Z" fill="#F7931A"/>
<path d="M108.939 162.2C109.305 161.608 109.842 161.14 110.539 160.809C111.237 160.479 112.071 160.308 113.031 160.308C113.991 160.308 114.826 160.479 115.523 160.809C116.22 161.14 116.757 161.608 117.123 162.2C117.489 162.793 117.672 163.478 117.672 164.23C117.672 164.983 117.489 165.655 117.123 166.248C116.757 166.841 116.22 167.309 115.523 167.639C114.826 167.97 113.991 168.141 113.031 168.141C112.071 168.141 111.237 167.97 110.539 167.639C109.842 167.309 109.305 166.841 108.939 166.248C108.574 165.655 108.391 164.983 108.391 164.23C108.391 163.478 108.574 162.793 108.939 162.2ZM111.077 165.245C111.488 165.496 112.14 165.621 113.031 165.621C113.923 165.621 114.574 165.496 114.986 165.245C115.397 164.994 115.603 164.652 115.603 164.23C115.603 163.797 115.397 163.455 114.986 163.204C114.574 162.953 113.923 162.828 113.031 162.828C112.14 162.828 111.488 162.953 111.077 163.204C110.665 163.455 110.459 163.797 110.459 164.23C110.459 164.663 110.665 164.994 111.077 165.245Z" fill="#27273F"/>
<path d="M61.3995 109.92C61.9938 110.285 62.451 110.821 62.7825 111.528C63.114 112.223 63.274 113.056 63.274 114.014C63.274 114.971 63.1025 115.804 62.7596 116.499C62.4167 117.195 61.9481 117.731 61.3538 118.084C60.7594 118.449 60.0736 118.62 59.3078 118.62C58.5534 118.62 57.879 118.426 57.2847 118.061C56.6903 117.697 56.2331 117.161 55.9016 116.454C55.5702 115.747 55.4102 114.926 55.4102 113.968C55.4102 113.01 55.5816 112.178 55.9245 111.482C56.2674 110.787 56.736 110.251 57.3304 109.897C57.9248 109.532 58.5991 109.361 59.3649 109.361C60.1307 109.361 60.8051 109.555 61.3995 109.92V109.92ZM58.3362 112.041C58.0848 112.451 57.959 113.101 57.9476 113.991C57.9476 114.88 58.0619 115.53 58.3134 115.941C58.5648 116.351 58.8963 116.556 59.3192 116.568C59.7536 116.568 60.0965 116.362 60.3479 115.952C60.5994 115.541 60.7251 114.892 60.7365 114.002C60.7365 113.113 60.6222 112.463 60.3708 112.052C60.1193 111.642 59.7764 111.437 59.3421 111.425C58.9306 111.425 58.5877 111.63 58.3362 112.041V112.041Z" fill="#27273F"/>
<path d="M111.872 179.845L109.874 179.961L109.496 173.028L111.068 172.942L114.361 176.1C114.683 176.407 114.951 176.604 115.182 176.705C115.405 176.799 115.625 176.845 115.851 176.834C116.141 176.819 116.354 176.703 116.506 176.502C116.658 176.3 116.725 176.005 116.7 175.643C116.676 175.313 116.589 175.018 116.431 174.751C116.273 174.484 116.037 174.27 115.754 174.106L116.697 172.184C117.294 172.494 117.776 172.963 118.136 173.567C118.505 174.179 118.709 174.905 118.759 175.767C118.791 176.444 118.715 177.054 118.522 177.589C118.329 178.124 118.034 178.551 117.644 178.862C117.247 179.181 116.779 179.357 116.238 179.376C115.754 179.401 115.299 179.326 114.853 179.138C114.416 178.958 113.906 178.588 113.329 178.018L111.694 176.426L111.872 179.845Z" fill="#3F3F3F"/>
<path d="M155.735 77.5596C155.061 77.7307 154.352 77.6851 153.62 77.4342C152.889 77.1834 152.18 76.7159 151.494 76.0431C150.809 75.3704 150.34 74.6634 150.077 73.9337C149.814 73.2039 149.757 72.497 149.917 71.8242C150.077 71.1401 150.42 70.5357 150.957 69.9884C151.483 69.4525 152.089 69.099 152.775 68.9394C153.449 68.7683 154.158 68.814 154.889 69.0648C155.621 69.3157 156.329 69.7832 157.015 70.4559C157.701 71.1287 158.17 71.8356 158.432 72.5654C158.695 73.2951 158.753 74.0021 158.593 74.6748C158.432 75.359 158.09 75.9633 157.564 76.4992C157.027 77.0351 156.409 77.3886 155.735 77.5596V77.5596ZM156.364 73.888C156.249 73.4205 155.872 72.8732 155.232 72.2461C154.603 71.619 154.043 71.2541 153.575 71.1401C153.106 71.026 152.717 71.1287 152.42 71.4251C152.112 71.733 152.02 72.1207 152.135 72.5882C152.249 73.0557 152.626 73.603 153.266 74.2301C153.906 74.8573 154.455 75.2221 154.923 75.3362C155.392 75.4502 155.781 75.3476 156.089 75.0397C156.387 74.7432 156.478 74.3555 156.364 73.888Z" fill="white"/>
<path d="M161.874 71.3575C161.199 71.5285 160.491 71.4829 159.759 71.2321C159.028 70.9812 158.319 70.5137 157.633 69.841C156.947 69.1682 156.479 68.4613 156.216 67.7315C155.953 67.0018 155.896 66.2948 156.056 65.6221C156.216 64.9379 156.559 64.3336 157.096 63.7863C157.622 63.2503 158.228 62.8969 158.913 62.7372C159.588 62.5662 160.296 62.6118 161.028 62.8627C161.759 63.1135 162.468 63.581 163.154 64.2538C163.84 64.9265 164.308 65.6335 164.571 66.3632C164.834 67.093 164.891 67.7999 164.731 68.4727C164.571 69.1568 164.228 69.7612 163.691 70.2971C163.165 70.833 162.548 71.1865 161.874 71.3575ZM162.502 67.6973C162.388 67.2298 162.011 66.6825 161.371 66.0554C160.731 65.4282 160.182 65.0633 159.713 64.9493C159.245 64.8353 158.856 64.9379 158.559 65.2344C158.25 65.5422 158.159 65.9299 158.273 66.3974C158.388 66.8649 158.765 67.4122 159.405 68.0394C160.045 68.6665 160.594 69.0314 161.062 69.1454C161.531 69.2594 161.919 69.1568 162.228 68.849C162.525 68.5411 162.617 68.1648 162.502 67.6973V67.6973Z" fill="white"/>
<path d="M73.2434 150.843C73.9178 150.672 74.6264 150.718 75.3579 150.969C76.0895 151.219 76.7981 151.687 77.4839 152.36C78.1697 153.032 78.6383 153.739 78.9012 154.469C79.1641 155.199 79.2213 155.906 79.0613 156.579C78.9012 157.263 78.5583 157.867 78.0211 158.414C77.4953 158.95 76.8896 159.304 76.2038 159.463C75.5294 159.634 74.8207 159.589 74.0892 159.338C73.3577 159.087 72.649 158.62 71.9632 157.947C71.2774 157.274 70.8088 156.567 70.5459 155.837C70.283 155.108 70.2259 154.401 70.3859 153.728C70.5459 153.044 70.8888 152.44 71.426 151.904C71.9518 151.368 72.569 151.014 73.2434 150.843V150.843ZM72.6147 154.515C72.729 154.982 73.1062 155.53 73.7463 156.157C74.3864 156.784 74.935 157.149 75.4037 157.263C75.8723 157.377 76.2609 157.274 76.5581 156.978C76.8667 156.67 76.9581 156.282 76.8438 155.815C76.7295 155.347 76.3523 154.8 75.7123 154.173C75.0722 153.546 74.5235 153.181 74.0549 153.067C73.5863 152.953 73.1977 153.055 72.8891 153.363C72.5919 153.66 72.5004 154.047 72.6147 154.515V154.515Z" fill="white"/>
<path d="M67.1047 157.046C67.7791 156.875 68.4877 156.921 69.2193 157.172C69.9508 157.423 70.6594 157.89 71.3452 158.563C72.031 159.236 72.4997 159.943 72.7626 160.672C73.0255 161.402 73.0826 162.109 72.9226 162.782C72.7626 163.466 72.4197 164.07 71.8825 164.618C71.3567 165.153 70.7509 165.507 70.0651 165.667C69.3907 165.838 68.6821 165.792 67.9505 165.541C67.219 165.29 66.5104 164.823 65.8246 164.15C65.1388 163.477 64.6701 162.77 64.4072 162.041C64.1443 161.311 64.0872 160.604 64.2472 159.931C64.4072 159.247 64.7501 158.643 65.2759 158.107C65.8246 157.571 66.4303 157.217 67.1047 157.046ZM66.4761 160.707C66.5904 161.174 66.9676 161.721 67.6076 162.348C68.2363 162.976 68.7964 163.34 69.265 163.454C69.7336 163.569 70.1222 163.466 70.4194 163.169C70.728 162.862 70.8195 162.474 70.7052 162.006C70.5909 161.539 70.2137 160.992 69.5736 160.364C68.9335 159.737 68.3849 159.372 67.9162 159.258C67.4476 159.144 67.059 159.247 66.7504 159.555C66.4532 159.863 66.3618 160.239 66.4761 160.707V160.707Z" fill="white"/>
<path d="M151.027 155.553C150.867 154.88 150.913 154.173 151.164 153.444C151.427 152.714 151.884 152.007 152.57 151.323C153.244 150.65 153.953 150.183 154.685 149.92C155.416 149.658 156.125 149.613 156.799 149.772C157.473 149.932 158.091 150.285 158.628 150.821C159.165 151.357 159.508 151.961 159.679 152.634C159.839 153.307 159.794 154.014 159.542 154.744C159.291 155.473 158.822 156.18 158.136 156.853C157.462 157.537 156.753 158.005 156.022 158.256C155.29 158.518 154.582 158.563 153.907 158.404C153.233 158.244 152.627 157.902 152.09 157.366C151.541 156.83 151.187 156.226 151.027 155.553ZM154.696 156.192C155.165 156.078 155.713 155.701 156.342 155.074C156.971 154.447 157.348 153.888 157.462 153.432C157.576 152.965 157.485 152.577 157.176 152.281C156.868 151.973 156.479 151.882 156.01 151.996C155.542 152.11 154.993 152.486 154.364 153.113C153.736 153.74 153.359 154.299 153.244 154.755C153.13 155.223 153.233 155.61 153.53 155.918C153.85 156.215 154.227 156.306 154.696 156.192Z" fill="white"/>
<path d="M157.211 161.7C157.051 161.027 157.096 160.32 157.348 159.59C157.611 158.86 158.068 158.154 158.754 157.469C159.428 156.797 160.137 156.318 160.868 156.067C161.6 155.805 162.308 155.759 162.983 155.919C163.657 156.078 164.274 156.432 164.811 156.968C165.349 157.504 165.692 158.108 165.863 158.781C166.023 159.453 165.977 160.16 165.726 160.89C165.474 161.62 165.006 162.327 164.32 163.011C163.646 163.695 162.937 164.163 162.205 164.413C161.474 164.676 160.765 164.721 160.091 164.562C159.417 164.402 158.811 164.049 158.274 163.524C157.725 162.988 157.371 162.384 157.211 161.7V161.7ZM160.88 162.338C161.348 162.224 161.897 161.848 162.525 161.221C163.154 160.594 163.531 160.035 163.646 159.579C163.76 159.111 163.668 158.724 163.36 158.427C163.051 158.119 162.663 158.028 162.194 158.142C161.725 158.256 161.177 158.632 160.548 159.26C159.919 159.887 159.542 160.434 159.428 160.902C159.314 161.369 159.417 161.757 159.714 162.065C160.034 162.361 160.411 162.452 160.88 162.338V162.338Z" fill="white"/>
<path d="M77.9666 72.8964C78.1266 73.5691 78.0809 74.2761 77.8294 75.0058C77.5779 75.7356 77.1093 76.4425 76.4235 77.1267C75.7491 77.7994 75.0405 78.2783 74.309 78.5292C73.5774 78.7914 72.8688 78.8371 72.1944 78.6774C71.52 78.5178 70.9028 78.1643 70.3656 77.6284C69.8284 77.0925 69.4855 76.4881 69.314 75.8154C69.154 75.1427 69.1998 74.4357 69.4512 73.7059C69.7141 72.9762 70.1713 72.2692 70.8571 71.5851C71.5315 70.9009 72.2401 70.4334 72.9716 70.1826C73.7032 69.9203 74.4118 69.8747 75.0862 70.0344C75.7606 70.194 76.3664 70.5475 76.9036 71.072C77.4522 71.6079 77.8065 72.2122 77.9666 72.8964V72.8964ZM74.2975 72.2464C73.8289 72.3605 73.2803 72.7367 72.6516 73.3639C72.023 73.991 71.6458 74.5497 71.5315 75.0058C71.4172 75.4733 71.5086 75.861 71.8172 76.1575C72.1258 76.4653 72.5144 76.5566 72.9831 76.4425C73.4517 76.3285 74.0003 75.9522 74.629 75.3251C75.2576 74.698 75.6348 74.1506 75.7491 73.6831C75.8634 73.2156 75.7606 72.828 75.4634 72.5201C75.1548 72.2236 74.7662 72.1324 74.2975 72.2464V72.2464Z" fill="white"/>
<path d="M71.781 66.7387C71.941 67.4114 71.8953 68.1184 71.6438 68.8481C71.3924 69.5779 70.9238 70.2848 70.238 70.969C69.5636 71.6417 68.8549 72.1206 68.1234 72.3715C67.3919 72.6337 66.6832 72.6793 66.0089 72.5197C65.3345 72.3601 64.7173 72.0066 64.1801 71.4707C63.6429 70.9348 63.3 70.3304 63.1285 69.6577C62.9685 68.9849 63.0142 68.278 63.2657 67.5482C63.5285 66.8185 63.9858 66.1115 64.6716 65.4274C65.3459 64.7432 66.0546 64.2757 66.7861 64.0249C67.5176 63.7626 68.2263 63.717 68.9006 63.8766C69.575 64.0363 70.1808 64.3898 70.718 64.9143C71.2667 65.4502 71.621 66.0659 71.781 66.7387V66.7387ZM68.112 66.1001C67.6433 66.2141 67.0947 66.5904 66.4661 67.2176C65.8374 67.8447 65.4602 68.4034 65.3459 68.8595C65.2316 69.327 65.3231 69.7147 65.6317 70.0112C65.9403 70.319 66.3289 70.4103 66.7975 70.2962C67.2662 70.1822 67.8148 69.8059 68.4434 69.1788C69.0721 68.5516 69.4493 67.9929 69.5636 67.5368C69.6779 67.0693 69.575 66.6816 69.2778 66.3738C68.9692 66.0773 68.5806 65.9861 68.112 66.1001V66.1001Z" fill="white"/>
<path d="M114.507 121.892C118.755 121.892 122.199 118.456 122.199 114.218C122.199 109.98 118.755 106.544 114.507 106.544C110.258 106.544 106.814 109.98 106.814 114.218C106.814 118.456 110.258 121.892 114.507 121.892Z" fill="url(#paint3_linear)"/>
<path d="M120.656 114.219C120.656 117.606 117.901 120.354 114.507 120.354C111.112 120.354 108.357 117.606 108.357 114.219C108.357 110.833 111.112 108.085 114.507 108.085C117.901 108.073 120.656 110.821 120.656 114.219Z" fill="#F7931A"/>
<path d="M162.718 56.9064L169.168 63.0784L167.425 64.8991L162.387 60.0781L161.244 61.2726L159.832 59.9216L162.718 56.9064V56.9064Z" fill="white"/>
<path d="M173.507 51.9888C173.766 51.187 173.62 50.3665 172.738 49.6416C171.537 48.6449 170.268 49.1768 168.973 50.2667L167.451 48.7448L166.524 49.6724L168.003 51.152C167.762 51.3929 167.521 51.6459 167.28 51.8989L165.789 50.4072L164.861 51.3347L166.383 52.8566C166.052 53.208 165.65 53.6001 164.522 54.7178L165.512 55.7082C166.232 54.9628 166.569 54.5314 167.128 54.9142L171.295 59.0813C171.612 59.5107 171.26 59.7551 170.585 60.4072L171.503 61.699C173.194 60.0078 173.37 59.8439 173.37 59.8439L174.674 61.1473L175.601 60.2197L174.316 58.9345C174.575 58.6876 174.822 58.4406 175.057 58.2057L176.336 59.4849L177.264 58.5573L175.96 57.254C177.43 55.6155 178.076 54.1842 176.747 52.5781C175.678 51.2921 174.598 51.3208 173.507 51.9888ZM168.385 52.9678C168.91 52.4438 170.385 50.6425 171.478 51.7356C172.523 52.7804 170.764 54.2978 170.24 54.8219L168.385 52.9678ZM173.211 57.7931L171.17 55.7519C171.796 55.1255 173.539 53.0322 174.735 54.228C175.888 55.3815 173.837 57.1667 173.211 57.7931Z" fill="#F7931A"/>
<path d="M145.415 76.4053C145.415 75.8887 145.587 75.4694 145.932 75.1475C146.284 74.8255 146.722 74.6646 147.246 74.6646C147.777 74.6646 148.215 74.8255 148.56 75.1475C148.911 75.4694 149.087 75.8887 149.087 76.4053C149.087 76.9144 148.915 77.3299 148.571 77.6519C148.226 77.9663 147.785 78.1235 147.246 78.1235C146.714 78.1235 146.276 77.9663 145.932 77.6519C145.587 77.3299 145.415 76.9144 145.415 76.4053Z" fill="white"/>
<path d="M145.73 87.5601C145.056 87.7312 144.347 87.6856 143.615 87.4347C142.884 87.1839 142.175 86.7164 141.489 86.0436C140.804 85.3709 140.335 84.6639 140.072 83.9342C139.809 83.2044 139.752 82.4975 139.912 81.8247C140.072 81.1406 140.415 80.5362 140.952 79.9889C141.478 79.453 142.084 79.0995 142.77 78.9399C143.444 78.7688 144.153 78.8145 144.884 79.0653C145.616 79.3162 146.324 79.7837 147.01 80.4564C147.696 81.1292 148.165 81.8361 148.427 82.5659C148.69 83.2956 148.748 84.0026 148.588 84.6753C148.427 85.3595 148.085 85.9638 147.559 86.4997C147.022 87.0356 146.404 87.3891 145.73 87.5601V87.5601ZM146.359 83.8885C146.244 83.421 145.867 82.8737 145.227 82.2466C144.598 81.6195 144.038 81.2546 143.57 81.1406C143.101 81.0265 142.712 81.1292 142.415 81.4256C142.107 81.7335 142.015 82.1212 142.13 82.5887C142.244 83.0562 142.621 83.6035 143.261 84.2306C143.901 84.8578 144.45 85.2226 144.918 85.3367C145.387 85.4507 145.776 85.3481 146.084 85.0402C146.382 84.7437 146.473 84.356 146.359 83.8885Z" fill="white"/>
<path d="M64.3023 171.523L58.1667 165.039L59.9972 163.307L64.7897 168.372L65.9907 167.235L67.3336 168.655L64.3023 171.523Z" fill="white"/>
<path d="M53.5009 176.02C53.2427 176.821 53.3885 177.642 54.27 178.367C55.4716 179.364 56.7402 178.832 58.0355 177.742L59.5573 179.264L60.4849 178.336L59.0053 176.856C59.2462 176.616 59.4871 176.363 59.728 176.11L61.2197 177.601L62.1473 176.674L60.6254 175.152C60.9561 174.8 61.3583 174.408 62.4865 173.291L61.4961 172.3C60.7768 173.046 60.4397 173.477 59.8808 173.094L55.7138 168.927C55.3961 168.498 55.7481 168.253 56.4237 167.601L55.5052 166.309C53.814 168.001 53.638 168.164 53.638 168.164L52.3347 166.861L51.4072 167.789L52.6924 169.074C52.4334 169.321 52.1864 169.568 51.9515 169.803L50.6723 168.524L49.7448 169.451L51.0481 170.754C49.5787 172.393 48.9324 173.824 50.2614 175.43C51.3307 176.716 52.4102 176.688 53.5009 176.02ZM58.6229 175.041C58.0989 175.565 56.6237 177.366 55.5306 176.273C54.4858 175.228 56.2448 173.711 56.7689 173.187L58.6229 175.041ZM53.7976 170.215L55.8388 172.257C55.2124 172.883 53.4694 174.976 52.2736 173.78C51.1202 172.627 53.1712 170.842 53.7976 170.215Z" fill="#F7931A"/>
<path d="M76.165 147.405C76.165 146.889 76.3372 146.469 76.6816 146.147C77.0335 145.826 77.4715 145.665 77.9956 145.665C78.5272 145.665 78.9652 145.826 79.3096 146.147C79.6615 146.469 79.8374 146.889 79.8374 147.405C79.8374 147.914 79.6652 148.33 79.3208 148.652C78.9764 148.966 78.5347 149.124 77.9956 149.124C77.464 149.124 77.026 148.966 76.6816 148.652C76.3372 148.33 76.165 147.914 76.165 147.405Z" fill="white"/>
<path d="M83.2698 141.44C83.9442 141.269 84.6528 141.315 85.3843 141.566C86.1159 141.816 86.8245 142.284 87.5103 142.957C88.1961 143.629 88.6647 144.336 88.9276 145.066C89.1905 145.796 89.2477 146.503 89.0877 147.176C88.9276 147.86 88.5847 148.464 88.0475 149.011C87.5217 149.547 86.916 149.901 86.2302 150.06C85.5558 150.231 84.8471 150.186 84.1156 149.935C83.3841 149.684 82.6754 149.217 81.9896 148.544C81.3038 147.871 80.8352 147.164 80.5723 146.434C80.3094 145.705 80.2523 144.998 80.4123 144.325C80.5723 143.641 80.9152 143.037 81.4524 142.501C81.9782 141.965 82.5954 141.611 83.2698 141.44V141.44ZM82.6411 145.112C82.7554 145.579 83.1326 146.127 83.7727 146.754C84.4128 147.381 84.9614 147.746 85.4301 147.86C85.8987 147.974 86.2873 147.871 86.5845 147.575C86.8931 147.267 86.9845 146.879 86.8702 146.412C86.7559 145.944 86.3787 145.397 85.7387 144.77C85.0986 144.143 84.5499 143.778 84.0813 143.664C83.6127 143.55 83.2241 143.652 82.9155 143.96C82.6183 144.257 82.5268 144.644 82.6411 145.112V145.112Z" fill="white"/>
<path d="M171.478 164.962L164.78 170.863L163.114 168.972L168.346 164.363L167.253 163.122L168.719 161.83L171.478 164.962V164.962Z" fill="white"/>
<path d="M176.02 175.507C176.821 175.766 177.642 175.62 178.367 174.738C179.364 173.537 178.832 172.268 177.742 170.973L179.264 169.451L178.336 168.524L176.856 170.003C176.616 169.762 176.363 169.521 176.11 169.28L177.601 167.789L176.674 166.861L175.152 168.383C174.8 168.052 174.408 167.65 173.291 166.522L172.3 167.512C173.046 168.232 173.477 168.569 173.094 169.128L168.927 173.295C168.498 173.612 168.253 173.26 167.601 172.585L166.309 173.503C168.001 175.194 168.164 175.37 168.164 175.37L166.861 176.674L167.789 177.601L169.074 176.316C169.321 176.575 169.568 176.822 169.803 177.057L168.524 178.336L169.451 179.264L170.754 177.96C172.393 179.43 173.824 180.076 175.43 178.747C176.716 177.678 176.688 176.598 176.02 175.507ZM175.041 170.385C175.565 170.91 177.366 172.385 176.273 173.478C175.228 174.523 173.711 172.764 173.187 172.24L175.041 170.385ZM170.215 175.211L172.257 173.17C172.883 173.796 174.976 175.539 173.78 176.735C172.627 177.888 170.842 175.837 170.215 175.211Z" fill="#F7931A"/>
<path d="M147.165 151.405C147.165 150.889 147.337 150.469 147.682 150.147C148.034 149.826 148.472 149.665 148.996 149.665C149.527 149.665 149.965 149.826 150.31 150.147C150.661 150.469 150.837 150.889 150.837 151.405C150.837 151.914 150.665 152.33 150.321 152.652C149.976 152.966 149.535 153.124 148.996 153.124C148.464 153.124 148.026 152.966 147.682 152.652C147.337 152.33 147.165 151.914 147.165 151.405Z" fill="white"/>
<path d="M142.424 146.215C142.264 145.542 142.31 144.835 142.561 144.106C142.824 143.376 143.281 142.669 143.967 141.985C144.641 141.312 145.35 140.845 146.082 140.582C146.813 140.32 147.522 140.275 148.196 140.434C148.87 140.594 149.488 140.947 150.025 141.483C150.562 142.019 150.905 142.623 151.076 143.296C151.236 143.969 151.191 144.676 150.939 145.406C150.688 146.135 150.219 146.842 149.533 147.515C148.859 148.199 148.15 148.667 147.419 148.918C146.687 149.18 145.979 149.225 145.304 149.066C144.63 148.906 144.024 148.564 143.487 148.028C142.938 147.492 142.584 146.888 142.424 146.215ZM146.093 146.854C146.562 146.74 147.11 146.363 147.739 145.736C148.368 145.109 148.745 144.55 148.859 144.094C148.973 143.627 148.882 143.239 148.573 142.943C148.265 142.635 147.876 142.544 147.407 142.658C146.939 142.772 146.39 143.148 145.761 143.775C145.133 144.402 144.756 144.961 144.641 145.417C144.527 145.885 144.63 146.272 144.927 146.58C145.247 146.877 145.624 146.968 146.093 146.854Z" fill="white"/>
<path d="M57.6828 64.6961L63.7602 58.1573L65.6061 59.8729L60.8589 64.9804L62.0699 66.106L60.7397 67.5373L57.6828 64.6961Z" fill="white"/>
<path d="M52.5728 53.9353C51.771 53.677 50.9506 53.8228 50.2257 54.7044C49.2289 55.9059 49.7608 57.1746 50.8507 58.4698L49.3288 59.9917L50.2564 60.9192L51.736 59.4396C51.9769 59.6805 52.2299 59.9215 52.4829 60.1624L50.9912 61.654L51.9188 62.5816L53.4407 61.0597C53.792 61.3904 54.1842 61.7926 55.3018 62.9208L56.2922 61.9304C55.5469 61.2111 55.1154 60.874 55.4982 60.3152L59.6653 56.1481C60.0948 55.8304 60.3391 56.1824 60.9912 56.858L62.2831 55.9395C60.5919 54.2483 60.428 54.0724 60.428 54.0724L61.7313 52.769L60.8037 51.8415L59.5185 53.1267C59.2716 52.8677 59.0247 52.6207 58.7898 52.3858L60.0689 51.1067L59.1414 50.1791L57.838 51.4824C56.1995 50.013 54.7682 49.3668 53.1621 50.6958C51.8761 51.765 51.9048 52.8445 52.5728 53.9353ZM53.5519 59.0572C53.0279 58.5332 51.2265 57.058 52.3196 55.9649C53.3644 54.9201 54.8819 56.6792 55.4059 57.2032L53.5519 59.0572ZM58.3772 54.2319L56.3359 56.2731C55.7095 55.6467 53.6162 53.9037 54.812 52.7079C55.9655 51.5545 57.7508 53.6055 58.3772 54.2319Z" fill="#F7931A"/>
<path d="M78.665 75.9053C78.665 75.3887 78.8372 74.9694 79.1816 74.6475C79.5335 74.3255 79.9715 74.1646 80.4956 74.1646C81.0272 74.1646 81.4652 74.3255 81.8096 74.6475C82.1615 74.9694 82.3374 75.3887 82.3374 75.9053C82.3374 76.4144 82.1652 76.8299 81.8208 77.1519C81.4764 77.4663 81.0347 77.6235 80.4956 77.6235C79.964 77.6235 79.526 77.4663 79.1816 77.1519C78.8372 76.8299 78.665 76.4144 78.665 75.9053Z" fill="white"/>
<path d="M87.0763 81.7905C87.2363 82.4632 87.1906 83.1702 86.9391 83.8999C86.6877 84.6297 86.2191 85.3366 85.5333 86.0208C84.8589 86.6935 84.1502 87.1724 83.4187 87.4233C82.6872 87.6855 81.9785 87.7311 81.3042 87.5715C80.6298 87.4119 80.0126 87.0584 79.4754 86.5225C78.9382 85.9866 78.5953 85.3822 78.4238 84.7095C78.2638 84.0367 78.3095 83.3298 78.561 82.6C78.8238 81.8703 79.2811 81.1633 79.9669 80.4792C80.6412 79.795 81.3499 79.3275 82.0814 79.0767C82.8129 78.8144 83.5216 78.7688 84.1959 78.9284C84.8703 79.0881 85.4761 79.4416 86.0133 79.9661C86.562 80.502 86.9163 81.1177 87.0763 81.7905V81.7905ZM83.4073 81.1519C82.9386 81.2659 82.39 81.6422 81.7614 82.2694C81.1327 82.8965 80.7555 83.4552 80.6412 83.9113C80.5269 84.3788 80.6184 84.7665 80.927 85.063C81.2356 85.3708 81.6242 85.4621 82.0928 85.348C82.5615 85.234 83.1101 84.8577 83.7387 84.2306C84.3674 83.6034 84.7446 83.0448 84.8589 82.5887C84.9732 82.1212 84.8703 81.7334 84.5731 81.4256C84.2645 81.1291 83.8759 81.0379 83.4073 81.1519V81.1519Z" fill="white"/>
<path d="M163.665 116.905C163.665 116.389 163.837 115.969 164.182 115.647C164.534 115.326 164.972 115.165 165.496 115.165C166.027 115.165 166.465 115.326 166.81 115.647C167.161 115.969 167.337 116.389 167.337 116.905C167.337 117.414 167.165 117.83 166.821 118.152C166.476 118.466 166.035 118.624 165.496 118.624C164.964 118.624 164.526 118.466 164.182 118.152C163.837 117.83 163.665 117.414 163.665 116.905Z" fill="#3F3F3F"/>
<path d="M157.193 118.321C156.599 117.956 156.141 117.42 155.809 116.714C155.478 116.018 155.318 115.186 155.318 114.228C155.318 113.27 155.49 112.438 155.833 111.742C156.176 111.047 156.643 110.511 157.238 110.157C157.832 109.792 158.519 109.62 159.285 109.62C160.039 109.62 160.713 109.814 161.307 110.179C161.901 110.544 162.359 111.08 162.691 111.787C163.022 112.482 163.182 113.315 163.182 114.272C163.182 115.23 163.01 116.063 162.667 116.758C162.324 117.454 161.857 117.99 161.262 118.343C160.668 118.708 159.992 118.88 159.227 118.88C158.472 118.869 157.787 118.686 157.193 118.321ZM160.255 116.2C160.507 115.79 160.634 115.14 160.645 114.251C160.645 113.361 160.531 112.71 160.279 112.3C160.028 111.889 159.696 111.685 159.273 111.674C158.839 111.674 158.496 111.878 158.245 112.288C157.993 112.699 157.866 113.35 157.855 114.239C157.855 115.129 157.969 115.778 158.221 116.188C158.472 116.598 158.816 116.804 159.251 116.815C159.673 116.815 160.004 116.611 160.255 116.2Z" fill="#27273F"/>
<path d="M108.665 170.405C108.665 169.889 108.837 169.469 109.182 169.147C109.534 168.826 109.972 168.665 110.496 168.665C111.027 168.665 111.465 168.826 111.81 169.147C112.161 169.469 112.337 169.889 112.337 170.405C112.337 170.914 112.165 171.33 111.821 171.652C111.476 171.966 111.035 172.124 110.496 172.124C109.964 172.124 109.526 171.966 109.182 171.652C108.837 171.33 108.665 170.914 108.665 170.405Z" fill="#3F3F3F"/>
<path d="M114.962 186.999C114.517 187.646 113.88 188.025 113.028 188.12C112.483 188.181 111.957 188.103 111.471 187.87C110.973 187.638 110.561 187.248 110.225 186.701C109.888 186.153 109.672 185.455 109.578 184.605C109.508 183.981 109.518 183.349 109.599 182.732C109.678 182.103 109.836 181.558 110.071 181.085L112.056 181.77C111.857 182.147 111.719 182.564 111.64 182.998C111.564 183.443 111.542 183.869 111.59 184.3C111.638 184.73 111.756 185.061 111.956 185.303C112.144 185.546 112.396 185.644 112.691 185.611C112.987 185.578 113.2 185.429 113.32 185.163C113.44 184.897 113.469 184.435 113.398 183.8L113.131 181.398L118.36 181.263L118.988 186.906L117.045 187.122L116.648 183.553L115.34 183.583L115.406 184.173C115.554 185.396 115.406 186.341 114.962 186.999V186.999Z" fill="#27273F"/>
<path d="M115.757 198.641C116.183 199.368 116.892 199.806 118.02 199.631C119.563 199.399 120.012 198.098 120.061 196.406L122.21 196.285L122.136 194.975L120.047 195.093C120.028 194.753 120 194.405 119.971 194.057L122.078 193.938L122.003 192.628L119.855 192.749C119.813 192.269 119.788 191.707 119.706 190.121L118.308 190.201C118.384 191.234 118.482 191.772 117.824 191.934L111.94 192.267C111.408 192.218 111.461 191.792 111.424 190.854L109.849 190.679C109.984 193.067 109.989 193.307 109.989 193.307L108.149 193.411L108.223 194.721L110.037 194.618C110.049 194.976 110.069 195.324 110.087 195.656L108.281 195.758L108.355 197.068L110.196 196.964C110.439 199.151 111.076 200.587 113.159 200.665C114.831 200.724 115.528 199.9 115.757 198.641ZM118.438 194.169C118.48 194.909 118.841 197.209 117.297 197.296C115.822 197.38 115.862 195.057 115.82 194.317L118.438 194.169ZM111.625 194.554L114.507 194.391C114.557 195.276 114.957 197.97 113.269 198.065C111.64 198.157 111.675 195.438 111.625 194.554Z" fill="#F7931A"/>
<path d="M45.6634 118.714V109.786H48.1834V116.759H49.8367V118.714H45.6634Z" fill="#27273F"/>
<path d="M33.8936 114.313C33.1446 114.698 32.6686 115.382 32.781 116.518C32.9281 118.072 34.2021 118.591 35.8888 118.734L35.892 120.886L37.2038 120.884L37.2007 118.792C37.5414 118.791 37.8906 118.782 38.2398 118.773L38.243 120.883L39.5547 120.881L39.5515 118.729C40.0338 118.713 40.5955 118.72 42.1836 118.725L42.1815 117.324C41.1459 117.344 40.6025 117.412 40.477 116.746L40.4683 110.853C40.5466 110.324 40.9684 110.4 41.9072 110.415L42.1689 108.852C39.7772 108.855 39.5369 108.847 39.5369 108.847L39.5341 107.004L38.2224 107.006L38.2251 108.823C37.8673 108.815 37.5181 108.816 37.1859 108.816L37.1832 107.007L35.8714 107.009L35.8741 108.853C33.6767 108.975 32.2084 109.533 32.0156 111.608C31.8648 113.274 32.6495 114.016 33.8936 114.313ZM38.212 117.236C37.4709 117.237 35.1544 117.471 35.1521 115.925C35.1499 114.448 37.467 114.615 38.2081 114.614L38.212 117.236ZM38.2019 110.412L38.2061 113.299C37.3203 113.3 34.6079 113.552 34.6054 111.861C34.603 110.229 37.316 110.413 38.2019 110.412Z" fill="#F7931A"/>
<path d="M50.165 110.905C50.165 110.389 50.3372 109.969 50.6816 109.647C51.0335 109.326 51.4715 109.165 51.9956 109.165C52.5272 109.165 52.9652 109.326 53.3096 109.647C53.6615 109.969 53.8374 110.389 53.8374 110.905C53.8374 111.414 53.6652 111.83 53.3208 112.152C52.9764 112.466 52.5347 112.624 51.9956 112.624C51.464 112.624 51.026 112.466 50.6816 112.152C50.3372 111.83 50.165 111.414 50.165 110.905Z" fill="#3F3F3F"/>
<defs>
<linearGradient id="paint0_linear" x1="192.367" y1="36.5334" x2="28.6657" y2="201.427" gradientUnits="userSpaceOnUse">
<stop stop-color="#F9DF7B"/>
<stop offset="0.2038" stop-color="#B57E10"/>
<stop offset="0.2643" stop-color="#B78114"/>
<stop offset="0.3227" stop-color="#BF8C1F"/>
<stop offset="0.3803" stop-color="#CB9E33"/>
<stop offset="0.4373" stop-color="#DDB64E"/>
<stop offset="0.4935" stop-color="#F3D671"/>
<stop offset="0.5077" stop-color="#F9DF7B"/>
<stop offset="0.5189" stop-color="#FFF3A6"/>
<stop offset="0.5934" stop-color="#F9DF7B"/>
<stop offset="0.8428" stop-color="#B57E10"/>
<stop offset="0.9493" stop-color="#E5C35C"/>
<stop offset="1" stop-color="#F9DF7B"/>
</linearGradient>
<linearGradient id="paint1_linear" x1="49.9933" y1="49.8638" x2="176.575" y2="177.366" gradientUnits="userSpaceOnUse">
<stop stop-color="#F9DF7B"/>
<stop offset="0.2038" stop-color="#B57E10"/>
<stop offset="0.2643" stop-color="#B78114"/>
<stop offset="0.3227" stop-color="#BF8C1F"/>
<stop offset="0.3803" stop-color="#CB9E33"/>
<stop offset="0.4373" stop-color="#DDB64E"/>
<stop offset="0.4935" stop-color="#F3D671"/>
<stop offset="0.5077" stop-color="#F9DF7B"/>
<stop offset="0.5189" stop-color="#FFF3A6"/>
<stop offset="0.5934" stop-color="#F9DF7B"/>
<stop offset="0.8428" stop-color="#B57E10"/>
<stop offset="0.9493" stop-color="#E5C35C"/>
<stop offset="1" stop-color="#F9DF7B"/>
</linearGradient>
<linearGradient id="paint2_linear" x1="26.2944" y1="114.217" x2="202.707" y2="114.217" gradientUnits="userSpaceOnUse">
<stop stop-color="#F9DF7B"/>
<stop offset="0.2038" stop-color="#B57E10"/>
<stop offset="0.2643" stop-color="#B78114"/>
<stop offset="0.3227" stop-color="#BF8C1F"/>
<stop offset="0.3803" stop-color="#CB9E33"/>
<stop offset="0.4373" stop-color="#DDB64E"/>
<stop offset="0.4935" stop-color="#F3D671"/>
<stop offset="0.5077" stop-color="#F9DF7B"/>
<stop offset="0.5189" stop-color="#FFF3A6"/>
<stop offset="0.5934" stop-color="#F9DF7B"/>
<stop offset="0.8428" stop-color="#B57E10"/>
<stop offset="0.9493" stop-color="#E5C35C"/>
<stop offset="1" stop-color="#F9DF7B"/>
</linearGradient>
<linearGradient id="paint3_linear" x1="109.517" y1="109.243" x2="121.125" y2="120.935" gradientUnits="userSpaceOnUse">
<stop stop-color="#F9DF7B"/>
<stop offset="0.2038" stop-color="#B57E10"/>
<stop offset="0.2643" stop-color="#B78114"/>
<stop offset="0.3227" stop-color="#BF8C1F"/>
<stop offset="0.3803" stop-color="#CB9E33"/>
<stop offset="0.4373" stop-color="#DDB64E"/>
<stop offset="0.4935" stop-color="#F3D671"/>
<stop offset="0.5077" stop-color="#F9DF7B"/>
<stop offset="0.5189" stop-color="#FFF3A6"/>
<stop offset="0.5934" stop-color="#F9DF7B"/>
<stop offset="0.8428" stop-color="#B57E10"/>
<stop offset="0.9493" stop-color="#E5C35C"/>
<stop offset="1" stop-color="#F9DF7B"/>
</linearGradient>
</defs>
</svg>
