<svg width="229" height="229" viewBox="0 0 229 229" fill="none" xmlns="http://www.w3.org/2000/svg">
    <path d="M229 114.218C229 177.297 177.736 228.448 114.506 228.448C51.2635 228.437 0 177.297 0 114.218C0 52.9644 48.3146 2.97604 109.019 0.125423C110.837 0.0456062 112.677 0 114.506 0C116.346 0 118.163 0.0342037 119.981 0.125423C180.674 2.97604 229 52.9644 229 114.218Z"
          fill="url(#paint0_linear)"/>
    <path d="M114.506 226.681C176.767 226.681 227.24 176.33 227.24 114.219C227.24 52.1075 176.767 1.75635 114.506 1.75635C52.2442 1.75635 1.77148 52.1075 1.77148 114.219C1.77148 176.33 52.2442 226.681 114.506 226.681Z"
          fill="#F7931A"/>
    <path d="M114.505 211.185C168.188 211.185 211.706 167.772 211.706 114.218C211.706 60.6653 168.188 17.252 114.505 17.252C60.8229 17.252 17.3047 60.6653 17.3047 114.218C17.3047 167.772 60.8229 211.185 114.505 211.185Z"
          fill="url(#paint1_linear)"/>
    <path d="M181.932 181.482C190.824 172.611 197.591 162.417 202.231 151.539L114.506 114.219L151.928 201.744C162.821 197.104 173.039 190.353 181.932 181.482ZM47.0692 181.482C55.9617 190.353 66.1802 197.104 77.0844 201.733L114.506 114.219L26.7695 151.551C31.4101 162.417 38.1767 172.611 47.0692 181.482ZM47.0692 46.9446C38.1767 55.8157 31.4101 66.0095 26.7695 76.8875L114.506 114.219L77.0844 26.6938C66.1802 31.3346 55.9617 38.0735 47.0692 46.9446ZM181.932 46.9446C173.039 38.0735 162.821 31.3232 151.917 26.6938L114.506 114.219L202.243 76.8875C197.591 66.0095 190.824 55.8157 181.932 46.9446Z"
          fill="#FF453A"/>
    <path d="M181.932 181.482C190.824 172.611 197.591 162.417 202.231 151.539L114.506 114.219L151.928 201.744C162.821 197.104 173.039 190.353 181.932 181.482ZM47.0692 181.482C55.9617 190.353 66.1802 197.104 77.0844 201.733L114.506 114.219L26.7695 151.551C31.4101 162.417 38.1767 172.611 47.0692 181.482ZM47.0692 46.9446C38.1767 55.8157 31.4101 66.0095 26.7695 76.8875L114.506 114.219L77.0844 26.6938C66.1802 31.3346 55.9617 38.0735 47.0692 46.9446ZM181.932 46.9446C173.039 38.0735 162.821 31.3232 151.917 26.6938L114.506 114.219L202.243 76.8875C197.591 66.0095 190.824 55.8157 181.932 46.9446Z"
          fill="#CC0B00"/>
    <path d="M151.733 202.211L114.506 115.131L77.2783 202.211L76.9468 202.074C65.6768 197.285 55.5499 190.444 46.8173 181.744C38.0962 173.044 31.2382 162.93 26.4376 151.687L26.3005 151.356L113.58 114.218L26.2891 77.0805L26.4262 76.7499C31.2268 65.507 38.0848 55.4045 46.8059 46.693C55.527 37.9929 65.6654 31.1514 76.9354 26.3624L77.2668 26.2256L114.494 113.306L151.722 26.2256L152.053 26.3624C163.323 31.1514 173.45 37.9929 182.183 46.693C190.904 55.3931 197.762 65.507 202.562 76.7499L202.7 77.0805L202.368 77.2174L115.42 114.218L202.711 151.356L202.574 151.687C197.773 162.93 190.915 173.032 182.194 181.744C173.473 190.444 163.335 197.285 152.065 202.074L151.733 202.211ZM115.18 114.902L152.11 201.265C163.163 196.521 173.107 189.782 181.68 181.231C190.252 172.679 197.007 162.759 201.762 151.732L115.18 114.902ZM27.2378 151.732C31.9926 162.759 38.7478 172.679 47.3203 181.231C55.8928 189.782 65.8368 196.521 76.8897 201.265L113.82 114.902L27.2378 151.732ZM27.2378 76.6928L113.82 113.534L76.8897 27.172C65.8368 31.9154 55.8928 38.6543 47.3203 47.2061C38.7592 55.7579 32.0041 65.6781 27.2378 76.6928ZM115.18 113.534L201.751 76.6928C196.996 65.6667 190.241 55.7465 181.668 47.1947C173.096 38.6429 163.152 31.904 152.099 27.1606L115.18 113.534Z"
          fill="url(#paint2_linear)"/>
    <path d="M200.389 155.586C206.458 143.077 209.853 129.041 209.853 114.218C209.853 99.3945 206.447 85.3581 200.389 72.8496C201.029 74.1837 201.646 75.5292 202.229 76.8861L114.504 114.218L202.241 151.549C201.658 152.906 201.04 154.252 200.389 155.586Z"
          fill="white"/>
    <path d="M28.6086 72.8496C22.5392 85.3581 19.1445 99.3945 19.1445 114.218C19.1445 129.041 22.5507 143.077 28.6086 155.586C27.9685 154.252 27.3513 152.906 26.7683 151.549L114.505 114.218L26.7683 76.8861C27.3513 75.5292 27.9571 74.1837 28.6086 72.8496Z"
          fill="white"/>
    <path d="M155.959 28.5286C143.421 22.4739 129.35 19.0874 114.491 19.0874C99.6325 19.0874 85.5621 22.4853 73.0234 28.5286C74.3607 27.8901 75.7095 27.2744 77.0697 26.6928L114.503 114.218L151.925 26.6928C153.273 27.2744 154.622 27.8787 155.959 28.5286Z"
          fill="white"/>
    <path d="M151.916 201.732L114.505 114.218L77.0833 201.744C75.7232 201.162 74.3744 200.558 73.0371 199.908C85.5758 205.962 99.6461 209.349 114.505 209.349C129.364 209.349 143.434 205.951 155.973 199.908C154.624 200.546 153.276 201.162 151.916 201.732Z"
          fill="white"/>
    <path d="M90.6728 216.236C91.05 214.332 92.9131 213.089 94.8219 213.465C96.7307 213.841 97.9766 215.7 97.5994 217.604C97.2222 219.508 95.3705 220.751 93.4503 220.375C91.5415 219.999 90.2956 218.14 90.6728 216.236Z"
          fill="#27273F"/>
    <path d="M131.615 217.571C131.237 215.667 132.472 213.808 134.381 213.432C136.29 213.044 138.153 214.287 138.53 216.191C138.918 218.095 137.673 219.954 135.764 220.33C133.866 220.706 132.003 219.475 131.615 217.571Z"
          fill="#27273F"/>
    <path d="M59.0356 25.2677C60.1214 26.8868 59.6871 29.0647 58.064 30.1479C56.441 31.2312 54.2578 30.7979 53.172 29.1787C52.0861 27.5596 52.5205 25.3817 54.1435 24.2985C55.7552 23.2152 57.9497 23.6485 59.0356 25.2677Z"
          fill="#27273F"/>
    <path d="M29.1336 53.2158C30.7566 54.2991 31.191 56.4769 30.1165 58.0961C29.0421 59.7152 26.8476 60.1485 25.2245 59.0767C23.6014 57.9934 23.1671 55.8156 24.2415 54.1964C25.3159 52.5773 27.5105 52.1326 29.1336 53.2158Z"
          fill="#27273F"/>
    <path d="M12.2281 90.4446C14.137 90.8209 15.3828 92.6795 15.0056 94.5837C14.6284 96.4879 12.7654 97.7308 10.8565 97.3545C8.94773 96.9782 7.70186 95.1196 8.07905 93.2154C8.46767 91.3112 10.3193 90.0683 12.2281 90.4446Z"
          fill="#27273F"/>
    <path d="M10.902 131.3C12.8108 130.924 14.6739 132.155 15.0511 134.059C15.4397 135.964 14.1938 137.822 12.285 138.199C10.3762 138.575 8.51313 137.343 8.13594 135.439C7.74732 133.535 8.98176 131.676 10.902 131.3Z"
          fill="#27273F"/>
    <path d="M25.3388 169.543C26.9505 168.459 29.145 168.893 30.2309 170.512C31.3167 172.131 30.8824 174.309 29.2593 175.392C27.6363 176.475 25.4531 176.042 24.3673 174.423C23.2814 172.815 23.7158 170.626 25.3388 169.543Z"
          fill="#27273F"/>
    <path d="M53.355 199.372C54.4294 197.753 56.624 197.32 58.247 198.391C59.8701 199.463 60.3044 201.653 59.23 203.272C58.1442 204.891 55.961 205.324 54.338 204.252C52.7035 203.18 52.2691 200.991 53.355 199.372Z"
          fill="#27273F"/>
    <path d="M169.963 203.158C168.877 201.539 169.311 199.361 170.935 198.277C172.558 197.194 174.741 197.628 175.827 199.247C176.912 200.866 176.478 203.044 174.855 204.127C173.243 205.21 171.049 204.777 169.963 203.158Z"
          fill="#27273F"/>
    <path d="M199.863 175.222C198.24 174.138 197.806 171.96 198.88 170.341C199.955 168.722 202.149 168.289 203.772 169.361C205.395 170.444 205.83 172.622 204.755 174.241C203.681 175.86 201.486 176.293 199.863 175.222Z"
          fill="#27273F"/>
    <path d="M216.769 137.981C214.86 137.605 213.614 135.746 213.991 133.842C214.368 131.938 216.22 130.695 218.14 131.071C220.049 131.447 221.295 133.306 220.918 135.21C220.541 137.126 218.677 138.369 216.769 137.981Z"
          fill="#27273F"/>
    <path d="M218.105 97.1383C216.196 97.5146 214.333 96.2831 213.956 94.3789C213.567 92.4747 214.813 90.6161 216.722 90.2398C218.631 89.8521 220.494 91.095 220.871 92.9992C221.248 94.9034 220.014 96.7506 218.105 97.1383Z"
          fill="#27273F"/>
    <path d="M203.66 58.8828C202.037 59.966 199.842 59.5327 198.768 57.9136C197.682 56.2944 198.116 54.1166 199.739 53.0333C201.362 51.9501 203.545 52.3834 204.631 54.0025C205.717 55.6103 205.283 57.7996 203.66 58.8828Z"
          fill="#27273F"/>
    <path d="M175.654 29.0539C174.568 30.6731 172.385 31.1064 170.762 30.0346C169.139 28.9513 168.704 26.7734 169.779 25.1543C170.864 23.5352 173.048 23.1019 174.671 24.1737C176.294 25.2569 176.728 27.4348 175.654 29.0539Z"
          fill="#27273F"/>
    <path d="M138.324 12.2009C137.947 14.1051 136.084 15.348 134.175 14.9717C132.266 14.5954 131.02 12.7368 131.397 10.8326C131.775 8.92839 133.626 7.68552 135.546 8.0618C137.467 8.43808 138.701 10.2853 138.324 12.2009Z"
          fill="#27273F"/>
    <path d="M97.3827 10.8664C97.7599 12.7706 96.5254 14.6292 94.6166 15.0054C92.7078 15.3931 90.8447 14.1503 90.4675 12.246C90.0789 10.3418 91.3248 8.48324 93.2336 8.10696C95.1424 7.71927 96.994 8.95074 97.3827 10.8664Z"
          fill="#27273F"/>
<!--    <path d="M114.505 31.1171L123.021 16.3965H105.979L114.505 31.1171Z" fill="#F7931A"/>Треугольник-->
    <path d="M109.463 62.4609H118.39V64.9809H111.417V66.6342H109.463V62.4609Z" fill="#27273F"/>
    <path d="M118.025 59.2234C117.66 59.8163 117.123 60.2838 116.425 60.6145C115.728 60.9452 114.894 61.1162 113.934 61.1162C112.973 61.1162 112.139 60.9452 111.442 60.6145C110.745 60.2838 110.207 59.8163 109.842 59.2234C109.476 58.6305 109.293 57.9463 109.293 57.1938C109.293 56.4412 109.476 55.7685 109.842 55.1755C110.207 54.5826 110.745 54.1151 111.442 53.7844C112.139 53.4538 112.973 53.2827 113.934 53.2827C114.894 53.2827 115.728 53.4538 116.425 53.7844C117.123 54.1151 117.66 54.5826 118.025 55.1755C118.391 55.7685 118.574 56.4412 118.574 57.1938C118.574 57.9577 118.391 58.6305 118.025 59.2234ZM115.888 56.1789C115.477 55.9281 114.825 55.8027 113.934 55.8027C113.042 55.8027 112.391 55.9281 111.979 56.1789C111.568 56.4298 111.362 56.7719 111.362 57.1938C111.362 57.6271 111.568 57.9691 111.979 58.22C112.391 58.4708 113.042 58.5963 113.934 58.5963C114.825 58.5963 115.477 58.4708 115.888 58.22C116.3 57.9691 116.505 57.6271 116.505 57.1938C116.505 56.7719 116.3 56.4298 115.888 56.1789Z"
          fill="#27273F"/>
    <path d="M118.025 50.5115C117.66 51.1044 117.123 51.5719 116.425 51.9026C115.728 52.2333 114.894 52.4043 113.934 52.4043C112.973 52.4043 112.139 52.2333 111.442 51.9026C110.745 51.5719 110.207 51.1044 109.842 50.5115C109.476 49.9186 109.293 49.2344 109.293 48.4818C109.293 47.7293 109.476 47.0565 109.842 46.4636C110.207 45.8707 110.745 45.4032 111.442 45.0725C112.139 44.7418 112.973 44.5708 113.934 44.5708C114.894 44.5708 115.728 44.7418 116.425 45.0725C117.123 45.4032 117.66 45.8707 118.025 46.4636C118.391 47.0565 118.574 47.7293 118.574 48.4818C118.574 49.2458 118.391 49.9186 118.025 50.5115ZM115.888 47.467C115.477 47.2162 114.825 47.0907 113.934 47.0907C113.042 47.0907 112.391 47.2162 111.979 47.467C111.568 47.7179 111.362 48.06 111.362 48.4818C111.362 48.9151 111.568 49.2572 111.979 49.5081C112.391 49.7589 113.042 49.8843 113.934 49.8843C114.825 49.8843 115.477 49.7589 115.888 49.5081C116.3 49.2572 116.505 48.9151 116.505 48.4818C116.505 48.06 116.3 47.7179 115.888 47.467Z"
          fill="#27273F"/>
    <path d="M117.523 36.9201C118.037 37.4218 118.369 38.1515 118.506 39.1093H119.923V40.6373H118.563C118.517 41.2758 118.415 41.8801 118.232 42.4389C118.06 43.009 117.843 43.4765 117.592 43.8528L115.729 43.0204C115.991 42.6213 116.209 42.1652 116.369 41.6293C116.529 41.1048 116.609 40.5917 116.609 40.0786C116.609 39.1093 116.369 38.6304 115.877 38.6304C115.626 38.6304 115.431 38.7673 115.306 39.0409C115.18 39.3146 115.054 39.7593 114.917 40.375C114.768 41.0478 114.62 41.6065 114.448 42.0512C114.288 42.4959 114.014 42.8836 113.648 43.2142C113.283 43.5335 112.791 43.6931 112.174 43.6931C111.442 43.6931 110.814 43.4309 110.288 42.9064C109.762 42.3818 109.442 41.6179 109.328 40.6259H107.922V39.0979H109.305C109.351 38.619 109.431 38.1515 109.556 37.7068C109.682 37.2621 109.854 36.8631 110.048 36.521L111.922 37.2964C111.465 38.1401 111.237 38.9725 111.237 39.7593C111.237 40.261 111.305 40.6259 111.465 40.8539C111.614 41.082 111.808 41.196 112.048 41.196C112.288 41.196 112.471 41.0592 112.585 40.7855C112.7 40.5118 112.825 40.0786 112.951 39.4742C113.1 38.8015 113.248 38.2314 113.42 37.7867C113.591 37.342 113.854 36.9543 114.208 36.6236C114.574 36.2929 115.066 36.1333 115.683 36.1333C116.392 36.1675 117.009 36.4184 117.523 36.9201Z"
          fill="#27273F"/>
    <path d="M115.477 165.689C114.963 166.282 114.288 166.589 113.431 166.589C112.882 166.589 112.368 166.453 111.911 166.168C111.442 165.882 111.076 165.449 110.802 164.868C110.528 164.286 110.391 163.568 110.391 162.713C110.391 162.085 110.471 161.458 110.619 160.854C110.768 160.238 110.985 159.714 111.271 159.269L113.168 160.17C112.928 160.523 112.745 160.922 112.619 161.344C112.494 161.778 112.425 162.199 112.425 162.633C112.425 163.066 112.505 163.408 112.677 163.67C112.837 163.933 113.077 164.058 113.374 164.058C113.671 164.058 113.9 163.933 114.048 163.682C114.197 163.431 114.277 162.975 114.277 162.336V159.919L119.489 160.364V166.042H117.534V162.45L116.231 162.336V162.929C116.243 164.161 115.991 165.084 115.477 165.689Z"
          fill="#27273F"/>
    <path d="M110.939 169.2C111.305 168.608 111.842 168.14 112.539 167.809C113.237 167.479 114.071 167.308 115.031 167.308C115.991 167.308 116.826 167.479 117.523 167.809C118.22 168.14 118.757 168.608 119.123 169.2C119.489 169.793 119.672 170.478 119.672 171.23C119.672 171.983 119.489 172.655 119.123 173.248C118.757 173.841 118.22 174.309 117.523 174.639C116.826 174.97 115.991 175.141 115.031 175.141C114.071 175.141 113.237 174.97 112.539 174.639C111.842 174.309 111.305 173.841 110.939 173.248C110.574 172.655 110.391 171.983 110.391 171.23C110.391 170.478 110.574 169.793 110.939 169.2ZM113.077 172.245C113.488 172.496 114.14 172.621 115.031 172.621C115.923 172.621 116.574 172.496 116.986 172.245C117.397 171.994 117.603 171.652 117.603 171.23C117.603 170.797 117.397 170.455 116.986 170.204C116.574 169.953 115.923 169.828 115.031 169.828C114.14 169.828 113.488 169.953 113.077 170.204C112.665 170.455 112.459 170.797 112.459 171.23C112.459 171.663 112.665 171.994 113.077 172.245Z"
          fill="#27273F"/>
    <path d="M110.939 177.912C111.305 177.319 111.842 176.851 112.539 176.521C113.237 176.19 114.071 176.019 115.031 176.019C115.991 176.019 116.826 176.19 117.523 176.521C118.22 176.851 118.757 177.319 119.123 177.912C119.489 178.505 119.672 179.189 119.672 179.941C119.672 180.694 119.489 181.367 119.123 181.96C118.757 182.553 118.22 183.02 117.523 183.351C116.826 183.682 115.991 183.853 115.031 183.853C114.071 183.853 113.237 183.682 112.539 183.351C111.842 183.02 111.305 182.553 110.939 181.96C110.574 181.367 110.391 180.694 110.391 179.941C110.391 179.189 110.574 178.505 110.939 177.912ZM113.077 180.956C113.488 181.207 114.14 181.333 115.031 181.333C115.923 181.333 116.574 181.207 116.986 180.956C117.397 180.705 117.603 180.363 117.603 179.941C117.603 179.508 117.397 179.166 116.986 178.915C116.574 178.664 115.923 178.539 115.031 178.539C114.14 178.539 113.488 178.664 113.077 178.915C112.665 179.166 112.459 179.508 112.459 179.941C112.459 180.375 112.665 180.705 113.077 180.956Z"
          fill="#27273F"/>
    <path d="M111.441 191.503C110.927 191.001 110.595 190.272 110.447 189.314H109.029V187.786H110.389C110.435 187.147 110.538 186.543 110.71 185.984C110.881 185.414 111.098 184.947 111.35 184.57L113.213 185.403C112.95 185.802 112.733 186.258 112.573 186.794C112.413 187.318 112.333 187.831 112.333 188.345C112.333 189.314 112.573 189.793 113.064 189.793C113.316 189.793 113.51 189.656 113.636 189.382C113.761 189.108 113.887 188.664 114.024 188.048C114.173 187.375 114.321 186.817 114.493 186.372C114.664 185.927 114.927 185.54 115.293 185.209C115.659 184.89 116.15 184.73 116.767 184.73C117.499 184.73 118.128 184.992 118.653 185.517C119.179 186.041 119.499 186.805 119.613 187.797H121.019V189.325H119.636C119.591 189.804 119.511 190.272 119.385 190.716C119.259 191.161 119.088 191.56 118.882 191.902L117.007 191.127C117.465 190.283 117.693 189.451 117.693 188.664C117.693 188.162 117.613 187.797 117.465 187.569C117.316 187.341 117.122 187.227 116.882 187.227C116.642 187.227 116.47 187.364 116.344 187.638C116.23 187.911 116.104 188.345 115.979 188.949C115.83 189.622 115.682 190.192 115.51 190.636C115.35 191.081 115.076 191.469 114.721 191.799C114.356 192.13 113.864 192.29 113.247 192.29C112.573 192.256 111.955 192.005 111.441 191.503Z"
          fill="#27273F"/>
    <path d="M166.317 113.943C166.706 114.399 166.9 114.946 166.9 115.596C166.9 116.12 166.751 116.611 166.466 117.055C166.18 117.5 165.746 117.865 165.163 118.139C164.58 118.412 163.86 118.549 163.002 118.538C162.374 118.538 161.756 118.458 161.139 118.298C160.522 118.139 159.996 117.922 159.539 117.637L160.465 115.744C160.808 115.984 161.208 116.166 161.642 116.292C162.077 116.417 162.511 116.485 162.934 116.485C163.368 116.485 163.711 116.406 163.974 116.246C164.225 116.086 164.363 115.858 164.363 115.562C164.363 114.98 163.917 114.695 163.002 114.695H161.939L161.951 113.11L163.551 111.4L160.031 111.377L160.042 109.427L166.489 109.461L166.477 111.035L164.614 113.008C165.357 113.179 165.917 113.487 166.317 113.943Z"
          fill="#27273F"/>
    <path d="M169.599 118.025C169.005 117.66 168.548 117.124 168.216 116.418C167.885 115.722 167.725 114.89 167.725 113.932C167.725 112.974 167.896 112.142 168.239 111.446C168.582 110.751 169.05 110.215 169.645 109.861C170.239 109.496 170.925 109.325 171.691 109.325C172.445 109.325 173.12 109.519 173.714 109.884C174.308 110.249 174.765 110.785 175.097 111.492C175.428 112.187 175.588 113.02 175.588 113.977C175.588 114.935 175.417 115.768 175.074 116.463C174.731 117.159 174.263 117.695 173.668 118.048C173.074 118.413 172.399 118.584 171.634 118.584C170.879 118.573 170.193 118.39 169.599 118.025ZM172.662 115.904C172.914 115.494 173.04 114.844 173.051 113.955C173.051 113.065 172.937 112.415 172.685 112.005C172.434 111.594 172.102 111.389 171.679 111.378C171.245 111.378 170.902 111.583 170.651 111.993C170.399 112.404 170.273 113.054 170.262 113.943C170.262 114.833 170.376 115.483 170.628 115.893C170.879 116.303 171.222 116.509 171.657 116.52C172.079 116.52 172.411 116.315 172.662 115.904Z"
          fill="#27273F"/>
    <path d="M178.33 118.071C177.735 117.706 177.278 117.17 176.947 116.463C176.615 115.767 176.455 114.935 176.455 113.977C176.455 113.019 176.627 112.187 176.969 111.491C177.312 110.796 177.781 110.26 178.375 109.907C178.97 109.542 179.655 109.371 180.421 109.371C181.176 109.371 181.85 109.564 182.444 109.929C183.039 110.294 183.496 110.83 183.827 111.537C184.159 112.233 184.319 113.065 184.319 114.023C184.319 114.981 184.147 115.813 183.805 116.509C183.462 117.204 182.993 117.74 182.399 118.093C181.804 118.458 181.13 118.629 180.364 118.629C179.61 118.618 178.924 118.436 178.33 118.071ZM181.404 115.95C181.656 115.539 181.781 114.889 181.793 114C181.793 113.111 181.679 112.461 181.427 112.05C181.176 111.64 180.844 111.434 180.421 111.423C179.987 111.423 179.644 111.628 179.393 112.039C179.141 112.449 179.015 113.099 179.004 113.989C179.004 114.878 179.118 115.528 179.37 115.938C179.621 116.349 179.964 116.554 180.398 116.566C180.81 116.566 181.141 116.36 181.404 115.95Z"
          fill="#27273F"/>
    <path d="M191.967 117.626C191.452 118.139 190.721 118.458 189.761 118.607L189.749 120.02L188.218 120.009L188.229 118.652C187.589 118.607 186.995 118.493 186.423 118.321C185.852 118.15 185.383 117.934 185.006 117.672L185.84 115.813C186.24 116.075 186.698 116.292 187.223 116.451C187.749 116.611 188.263 116.702 188.778 116.702C189.749 116.702 190.229 116.463 190.229 115.984C190.229 115.733 190.092 115.539 189.818 115.414C189.544 115.288 189.098 115.163 188.492 115.015C187.818 114.867 187.258 114.707 186.812 114.547C186.366 114.376 185.977 114.114 185.657 113.749C185.337 113.384 185.177 112.894 185.177 112.267C185.177 111.537 185.452 110.91 185.977 110.397C186.503 109.872 187.269 109.564 188.263 109.45L188.275 108.048L189.806 108.059L189.795 109.439C190.275 109.485 190.744 109.576 191.189 109.701C191.635 109.827 192.035 109.998 192.378 110.203L191.59 112.073C190.744 111.605 189.921 111.377 189.121 111.377C188.618 111.377 188.252 111.446 188.023 111.594C187.795 111.742 187.68 111.936 187.68 112.176C187.68 112.415 187.818 112.597 188.081 112.711C188.355 112.837 188.789 112.951 189.395 113.088C190.069 113.236 190.641 113.396 191.087 113.555C191.532 113.726 191.921 113.989 192.241 114.353C192.561 114.718 192.733 115.209 192.721 115.824C192.721 116.508 192.47 117.124 191.967 117.626Z"
          fill="#27273F"/>
    <path d="M61.8008 118.96L61.8122 117.387L65.0012 110.078L67.7558 110.089L64.7154 116.976L67.0586 116.988L67.07 115.608L69.2188 115.619L69.2074 118.994L61.8008 118.96Z"
          fill="#27273F"/>
    <path d="M59.3995 110.42C59.9938 110.785 60.451 111.321 60.7825 112.028C61.114 112.723 61.274 113.556 61.274 114.514C61.274 115.471 61.1025 116.304 60.7596 116.999C60.4167 117.695 59.9481 118.231 59.3538 118.584C58.7594 118.949 58.0736 119.12 57.3078 119.12C56.5534 119.12 55.879 118.926 55.2847 118.561C54.6903 118.197 54.2331 117.661 53.9016 116.954C53.5702 116.247 53.4102 115.426 53.4102 114.468C53.4102 113.51 53.5816 112.678 53.9245 111.982C54.2674 111.287 54.736 110.751 55.3304 110.397C55.9248 110.032 56.5991 109.861 57.3649 109.861C58.1307 109.861 58.8051 110.055 59.3995 110.42ZM56.3362 112.541C56.0848 112.951 55.959 113.601 55.9476 114.491C55.9476 115.38 56.0619 116.03 56.3134 116.441C56.5648 116.851 56.8963 117.056 57.3192 117.068C57.7536 117.068 58.0965 116.862 58.3479 116.452C58.5994 116.041 58.7251 115.392 58.7365 114.502C58.7365 113.613 58.6222 112.963 58.3708 112.552C58.1193 112.142 57.7764 111.937 57.3421 111.925C56.9306 111.925 56.5877 112.13 56.3362 112.541Z"
          fill="#27273F"/>
    <path d="M50.6671 110.374C51.2614 110.739 51.7186 111.275 52.0501 111.982C52.3816 112.677 52.5416 113.51 52.5416 114.468C52.5416 115.425 52.3701 116.258 52.0272 116.953C51.6843 117.649 51.2157 118.185 50.6213 118.538C50.027 118.903 49.3412 119.074 48.5754 119.074C47.821 119.074 47.1466 118.88 46.5523 118.516C45.9579 118.151 45.5007 117.615 45.1692 116.908C44.8378 116.201 44.6777 115.38 44.6777 114.422C44.6777 113.464 44.8492 112.632 45.1921 111.936C45.535 111.241 46.0036 110.705 46.598 110.351C47.1923 109.986 47.8667 109.815 48.6325 109.815C49.3983 109.827 50.0727 110.009 50.6671 110.374ZM47.6038 112.495C47.3524 112.906 47.2266 113.555 47.2152 114.445C47.2152 115.334 47.3295 115.984 47.581 116.395C47.8324 116.805 48.1639 117.01 48.5868 117.022C49.0211 117.022 49.364 116.817 49.6155 116.406C49.867 115.996 49.9927 115.346 50.0041 114.456C50.0041 113.567 49.8898 112.917 49.6384 112.506C49.3869 112.096 49.044 111.891 48.6097 111.879C48.1982 111.879 47.8553 112.085 47.6038 112.495Z"
          fill="#27273F"/>
    <path d="M37.044 110.808C37.5584 110.295 38.2899 109.976 39.25 109.827L39.2614 108.414L40.7931 108.425L40.7816 109.782C41.4217 109.827 42.0161 109.941 42.5876 110.113C43.1591 110.284 43.6277 110.5 44.0049 110.762L43.1705 112.61C42.7704 112.347 42.3132 112.131 41.7875 111.971C41.2617 111.812 40.7473 111.72 40.233 111.72C39.2614 111.72 38.7814 111.96 38.7814 112.439C38.7814 112.689 38.9185 112.883 39.1929 113.009C39.4672 113.134 39.9129 113.26 40.5187 113.408C41.1931 113.556 41.7532 113.716 42.1989 113.875C42.6447 114.046 43.0333 114.309 43.3534 114.674C43.6734 115.038 43.8334 115.529 43.8334 116.156C43.8334 116.886 43.5591 117.513 43.0333 118.026C42.5076 118.55 41.7417 118.858 40.7473 118.972L40.7359 120.375L39.2043 120.363L39.2157 118.984C38.7357 118.938 38.267 118.847 37.8212 118.721C37.3755 118.596 36.9754 118.425 36.6325 118.22L37.4212 116.35C38.267 116.817 39.09 117.045 39.8901 117.045C40.393 117.045 40.7588 116.977 40.9874 116.829C41.216 116.68 41.3303 116.487 41.3303 116.247C41.3303 116.008 41.1931 115.825 40.9302 115.711C40.6559 115.586 40.2216 115.472 39.6158 115.335C38.9414 115.187 38.3699 115.027 37.9241 114.867C37.4784 114.696 37.0897 114.434 36.7697 114.069C36.4382 113.704 36.2782 113.214 36.2896 112.598C36.2782 111.926 36.5297 111.321 37.044 110.808Z"
          fill="#27273F"/>
    <path d="M152.729 78.2787L154.158 79.6812L149.277 84.6184L148.157 83.5124L148.283 78.9514C148.294 78.5067 148.26 78.176 148.18 77.9366C148.1 77.7085 147.986 77.5147 147.826 77.3551C147.62 77.1498 147.391 77.07 147.14 77.0928C146.888 77.1156 146.625 77.2638 146.374 77.5261C146.145 77.7655 145.985 78.0278 145.894 78.3243C145.802 78.6207 145.802 78.94 145.871 79.2593L143.814 79.8522C143.642 79.2023 143.665 78.5295 143.871 77.8568C144.077 77.1726 144.477 76.5341 145.082 75.9183C145.562 75.4394 146.065 75.086 146.591 74.8693C147.117 74.6527 147.631 74.5843 148.123 74.6641C148.626 74.7439 149.071 74.9719 149.449 75.3596C149.792 75.7017 150.043 76.0894 150.203 76.5455C150.363 76.9902 150.432 77.6173 150.397 78.4269L150.317 80.7074L152.729 78.2787Z"
          fill="white"/>
    <path d="M155.735 77.5596C155.061 77.7307 154.352 77.6851 153.62 77.4342C152.889 77.1834 152.18 76.7159 151.494 76.0431C150.809 75.3704 150.34 74.6634 150.077 73.9337C149.814 73.2039 149.757 72.497 149.917 71.8242C150.077 71.1401 150.42 70.5357 150.957 69.9884C151.483 69.4525 152.089 69.099 152.775 68.9394C153.449 68.7683 154.158 68.814 154.889 69.0648C155.621 69.3157 156.329 69.7832 157.015 70.4559C157.701 71.1287 158.17 71.8356 158.432 72.5654C158.695 73.2951 158.753 74.0021 158.593 74.6748C158.432 75.359 158.09 75.9633 157.564 76.4992C157.027 77.0351 156.409 77.3886 155.735 77.5596ZM156.364 73.888C156.249 73.4205 155.872 72.8732 155.232 72.2461C154.603 71.619 154.043 71.2541 153.575 71.1401C153.106 71.026 152.717 71.1287 152.42 71.4251C152.112 71.733 152.02 72.1207 152.135 72.5882C152.249 73.0557 152.626 73.603 153.266 74.2301C153.906 74.8573 154.455 75.2221 154.923 75.3362C155.392 75.4502 155.781 75.3476 156.089 75.0397C156.387 74.7432 156.478 74.3555 156.364 73.888Z"
          fill="white"/>
    <path d="M161.874 71.3575C161.199 71.5285 160.491 71.4829 159.759 71.2321C159.028 70.9812 158.319 70.5137 157.633 69.841C156.947 69.1682 156.479 68.4613 156.216 67.7315C155.953 67.0018 155.896 66.2948 156.056 65.6221C156.216 64.9379 156.559 64.3336 157.096 63.7863C157.622 63.2503 158.228 62.8969 158.913 62.7372C159.588 62.5662 160.296 62.6118 161.028 62.8627C161.759 63.1135 162.468 63.581 163.154 64.2538C163.84 64.9265 164.308 65.6335 164.571 66.3632C164.834 67.093 164.891 67.7999 164.731 68.4727C164.571 69.1568 164.228 69.7612 163.691 70.2971C163.165 70.833 162.548 71.1865 161.874 71.3575ZM162.502 67.6973C162.388 67.2298 162.011 66.6825 161.371 66.0554C160.731 65.4282 160.182 65.0633 159.713 64.9493C159.245 64.8353 158.856 64.9379 158.559 65.2344C158.25 65.5422 158.159 65.9299 158.273 66.3974C158.388 66.8649 158.765 67.4122 159.405 68.0394C160.045 68.6665 160.594 69.0314 161.062 69.1454C161.531 69.2594 161.919 69.1568 162.228 68.849C162.525 68.5411 162.617 68.1648 162.502 67.6973Z"
          fill="white"/>
    <path d="M171.086 61.3344C171.097 62.0527 170.812 62.8053 170.24 63.592L171.246 64.5841L170.172 65.6673L169.2 64.7095C168.72 65.1314 168.217 65.4849 167.703 65.7699C167.177 66.055 166.697 66.2374 166.251 66.3172L165.508 64.4244C165.977 64.3218 166.457 64.1508 166.937 63.8885C167.417 63.6263 167.84 63.3184 168.206 62.9535C168.891 62.2694 169.051 61.7563 168.709 61.4142C168.526 61.2317 168.297 61.1975 168.011 61.3116C167.726 61.4256 167.326 61.6422 166.8 61.9843C166.228 62.3606 165.725 62.6456 165.291 62.8509C164.857 63.0561 164.399 63.1474 163.908 63.1131C163.416 63.0903 162.959 62.8509 162.513 62.4176C161.988 61.9045 161.736 61.2773 161.736 60.5362C161.736 59.795 162.045 59.0311 162.651 58.2443L161.656 57.2637L162.731 56.1804L163.714 57.1497C164.079 56.8304 164.468 56.5681 164.88 56.3401C165.28 56.112 165.68 55.941 166.068 55.8384L166.857 57.7084C165.931 57.9934 165.188 58.4153 164.628 58.9855C164.274 59.3389 164.068 59.6582 164.011 59.9205C163.954 60.1941 164.011 60.4108 164.182 60.5704C164.354 60.7414 164.571 60.7642 164.845 60.6616C165.12 60.5476 165.52 60.3309 166.034 59.9889C166.617 59.6126 167.12 59.3161 167.554 59.1109C167.988 58.9056 168.446 58.8258 168.937 58.8372C169.429 58.86 169.886 59.0881 170.332 59.5214C170.823 60.0117 171.075 60.616 171.086 61.3344Z"
          fill="white"/>
    <path d="M79.6318 151.436C79.1403 151.607 78.6373 151.641 78.1344 151.527C77.6315 151.425 77.1857 151.174 76.7971 150.786C76.3628 150.364 76.0999 149.874 75.9856 149.338C75.8713 148.791 75.917 148.243 76.1113 147.696C76.3056 147.149 76.6371 146.635 77.0943 146.168C77.9858 145.267 78.9688 144.811 80.0204 144.822C81.0719 144.822 82.1121 145.324 83.1179 146.328C83.838 147.046 84.3295 147.799 84.5695 148.597C84.8095 149.395 84.821 150.182 84.5924 150.957C84.3638 151.732 83.918 152.451 83.2551 153.123C82.9007 153.488 82.5121 153.796 82.1121 154.036C81.712 154.287 81.3234 154.446 80.9462 154.526L80.3061 152.61C80.8319 152.519 81.3234 152.234 81.792 151.767C82.2492 151.31 82.4893 150.809 82.5121 150.273C82.535 149.737 82.3292 149.212 81.8949 148.699C81.8492 149.372 81.5406 149.999 80.9462 150.592C80.569 150.991 80.1232 151.276 79.6318 151.436ZM78.0887 148.163C78.0773 148.471 78.1916 148.745 78.443 148.984C78.6831 149.224 78.9574 149.338 79.266 149.315C79.5746 149.292 79.8489 149.155 80.1118 148.905C80.3633 148.642 80.5004 148.357 80.5119 148.049C80.5233 147.742 80.409 147.468 80.169 147.228C79.9289 147 79.666 146.886 79.3574 146.898C79.0488 146.909 78.7631 147.057 78.5002 147.331C78.2373 147.582 78.1001 147.856 78.0887 148.163Z"
          fill="white"/>
    <path d="M73.2434 150.843C73.9178 150.672 74.6264 150.718 75.3579 150.969C76.0895 151.219 76.7981 151.687 77.4839 152.36C78.1697 153.032 78.6383 153.739 78.9012 154.469C79.1641 155.199 79.2213 155.906 79.0613 156.579C78.9012 157.263 78.5583 157.867 78.0211 158.414C77.4953 158.95 76.8896 159.304 76.2038 159.463C75.5294 159.634 74.8207 159.589 74.0892 159.338C73.3577 159.087 72.649 158.62 71.9632 157.947C71.2774 157.274 70.8088 156.567 70.5459 155.837C70.283 155.108 70.2259 154.401 70.3859 153.728C70.5459 153.044 70.8888 152.44 71.426 151.904C71.9518 151.368 72.569 151.014 73.2434 150.843ZM72.6147 154.515C72.729 154.982 73.1062 155.53 73.7463 156.157C74.3864 156.784 74.935 157.149 75.4037 157.263C75.8723 157.377 76.2609 157.274 76.5581 156.978C76.8667 156.67 76.9581 156.282 76.8438 155.815C76.7295 155.347 76.3523 154.8 75.7123 154.173C75.0722 153.546 74.5235 153.181 74.0549 153.067C73.5863 152.953 73.1977 153.055 72.8891 153.363C72.5919 153.66 72.5004 154.047 72.6147 154.515Z"
          fill="white"/>
    <path d="M67.1047 157.046C67.7791 156.875 68.4877 156.921 69.2193 157.172C69.9508 157.423 70.6594 157.89 71.3452 158.563C72.031 159.236 72.4997 159.943 72.7626 160.672C73.0255 161.402 73.0826 162.109 72.9226 162.782C72.7626 163.466 72.4197 164.07 71.8825 164.618C71.3567 165.153 70.7509 165.507 70.0651 165.667C69.3907 165.838 68.6821 165.792 67.9505 165.541C67.219 165.29 66.5104 164.823 65.8246 164.15C65.1388 163.477 64.6701 162.77 64.4072 162.041C64.1443 161.311 64.0872 160.604 64.2472 159.931C64.4072 159.247 64.7501 158.643 65.2759 158.107C65.8246 157.571 66.4303 157.217 67.1047 157.046ZM66.4761 160.707C66.5904 161.174 66.9676 161.721 67.6076 162.348C68.2363 162.976 68.7964 163.34 69.265 163.454C69.7336 163.569 70.1222 163.466 70.4194 163.169C70.728 162.862 70.8195 162.474 70.7052 162.006C70.5909 161.539 70.2137 160.992 69.5736 160.364C68.9335 159.737 68.3849 159.372 67.9162 159.258C67.4476 159.144 67.059 159.247 66.7504 159.555C66.4532 159.863 66.3618 160.239 66.4761 160.707Z"
          fill="white"/>
    <path d="M57.8924 167.068C57.881 166.349 58.1668 165.597 58.7383 164.81L57.7324 163.818L58.8068 162.735L59.7784 163.693C60.2585 163.271 60.7614 162.917 61.2872 162.632C61.8129 162.347 62.293 162.165 62.7388 162.085L63.4817 163.978C63.0131 164.08 62.533 164.251 62.053 164.514C61.5729 164.776 61.15 165.084 60.7842 165.449C60.0984 166.133 59.9384 166.646 60.2813 166.988C60.4642 167.17 60.6928 167.205 60.9785 167.091C61.2643 166.977 61.6643 166.76 62.1901 166.418C62.7616 166.042 63.2645 165.757 63.6989 165.551C64.1332 165.346 64.5904 165.255 65.0819 165.289C65.5734 165.312 66.0306 165.551 66.4764 165.985C67.0022 166.498 67.2536 167.125 67.265 167.866C67.265 168.607 66.9564 169.371 66.3506 170.158L67.345 171.139L66.2706 172.222L65.2877 171.253C64.9219 171.572 64.5333 171.834 64.1218 172.062C63.7217 172.29 63.3217 172.461 62.9331 172.564L62.1444 170.694C63.0702 170.409 63.8132 169.987 64.3732 169.417C64.7276 169.063 64.9333 168.744 64.9905 168.482C65.0476 168.219 64.9905 168.003 64.819 167.832C64.6476 167.661 64.4304 167.638 64.1561 167.741C63.8818 167.855 63.4817 168.071 62.9674 168.413C62.3844 168.79 61.8815 169.086 61.4472 169.291C61.0128 169.497 60.5556 169.576 60.0641 169.565C59.5727 169.542 59.1155 169.314 58.6697 168.881C58.1553 168.391 57.9039 167.786 57.8924 167.068Z"
          fill="white"/>
    <path d="M150.26 152.908L149.323 151.973L148.111 153.181L146.374 151.448L147.586 150.239L144.248 146.91L145.414 145.747L152.18 144.629L154.032 146.465L147.78 147.594L149.06 148.871L150.135 147.799L151.826 149.475L150.752 150.547L151.689 151.482L150.26 152.908Z"
          fill="white"/>
    <path d="M151.027 155.553C150.867 154.88 150.913 154.173 151.164 153.444C151.427 152.714 151.884 152.007 152.57 151.323C153.244 150.65 153.953 150.183 154.685 149.92C155.416 149.658 156.125 149.613 156.799 149.772C157.473 149.932 158.091 150.285 158.628 150.821C159.165 151.357 159.508 151.961 159.679 152.634C159.839 153.307 159.794 154.014 159.542 154.744C159.291 155.473 158.822 156.18 158.136 156.853C157.462 157.537 156.753 158.005 156.022 158.256C155.29 158.518 154.582 158.563 153.907 158.404C153.233 158.244 152.627 157.902 152.09 157.366C151.541 156.83 151.187 156.226 151.027 155.553ZM154.696 156.192C155.165 156.078 155.713 155.701 156.342 155.074C156.971 154.447 157.348 153.888 157.462 153.432C157.576 152.965 157.485 152.577 157.176 152.281C156.868 151.973 156.479 151.882 156.01 151.996C155.542 152.11 154.993 152.486 154.364 153.113C153.736 153.74 153.359 154.299 153.244 154.755C153.13 155.223 153.233 155.61 153.53 155.918C153.85 156.215 154.227 156.306 154.696 156.192Z"
          fill="white"/>
    <path d="M157.211 161.7C157.051 161.027 157.096 160.32 157.348 159.59C157.611 158.86 158.068 158.154 158.754 157.469C159.428 156.797 160.137 156.318 160.868 156.067C161.6 155.805 162.308 155.759 162.983 155.919C163.657 156.078 164.274 156.432 164.811 156.968C165.349 157.504 165.692 158.108 165.863 158.781C166.023 159.453 165.977 160.16 165.726 160.89C165.474 161.62 165.006 162.327 164.32 163.011C163.646 163.695 162.937 164.163 162.205 164.413C161.474 164.676 160.765 164.721 160.091 164.562C159.417 164.402 158.811 164.049 158.274 163.524C157.725 162.988 157.371 162.384 157.211 161.7ZM160.88 162.338C161.348 162.224 161.897 161.848 162.525 161.221C163.154 160.594 163.531 160.035 163.646 159.579C163.76 159.111 163.668 158.724 163.36 158.427C163.051 158.119 162.663 158.028 162.194 158.142C161.725 158.256 161.177 158.632 160.548 159.26C159.919 159.887 159.542 160.434 159.428 160.902C159.314 161.369 159.417 161.757 159.714 162.065C160.034 162.361 160.411 162.452 160.88 162.338Z"
          fill="white"/>
    <path d="M167.21 170.935C166.49 170.946 165.736 170.661 164.959 170.08L163.964 171.083L162.878 170.011L163.838 169.042C163.416 168.563 163.061 168.061 162.787 167.537C162.501 167.012 162.33 166.534 162.238 166.089L164.136 165.359C164.227 165.827 164.41 166.305 164.673 166.784C164.936 167.275 165.244 167.697 165.599 168.05C166.285 168.734 166.799 168.905 167.142 168.563C167.325 168.381 167.359 168.153 167.245 167.868C167.13 167.583 166.913 167.183 166.57 166.659C166.193 166.089 165.907 165.576 165.713 165.142C165.507 164.709 165.427 164.253 165.45 163.763C165.484 163.272 165.713 162.816 166.147 162.372C166.662 161.858 167.29 161.596 168.033 161.596C168.776 161.596 169.542 161.904 170.331 162.52L171.325 161.528L172.411 162.6L171.451 163.592C171.759 163.968 172.034 164.356 172.262 164.755C172.491 165.154 172.651 165.553 172.754 165.941L170.879 166.716C170.605 165.792 170.182 165.051 169.611 164.492C169.256 164.139 168.948 163.934 168.673 163.877C168.41 163.82 168.193 163.877 168.022 164.048C167.85 164.219 167.828 164.435 167.93 164.709C168.033 164.983 168.262 165.382 168.605 165.895C168.982 166.477 169.268 166.978 169.473 167.411C169.668 167.845 169.759 168.301 169.736 168.791C169.713 169.281 169.485 169.738 169.039 170.182C168.548 170.684 167.93 170.935 167.21 170.935Z"
          fill="white"/>
    <path d="M77.6906 77.4913C77.7821 77.0922 77.9878 76.7274 78.3079 76.4081C78.7079 76.009 79.1651 75.781 79.6909 75.7011C80.2167 75.6327 80.7767 75.7125 81.3482 75.9634C81.9197 76.2142 82.4798 76.6133 83.0284 77.1493C83.5656 77.6852 83.9657 78.2439 84.2172 78.814C84.4686 79.3955 84.5601 79.9429 84.4915 80.4674C84.4229 80.9919 84.1829 81.4594 83.7942 81.8585C83.4742 82.1777 83.1199 82.383 82.7084 82.4742C82.3083 82.5654 81.874 82.554 81.4168 82.4286C81.4854 82.7935 81.4625 83.1469 81.3711 83.4776C81.2682 83.8083 81.0853 84.1048 80.8224 84.3784C80.4567 84.7433 80.0338 84.9599 79.5423 85.0284C79.0508 85.0968 78.5364 85.017 78.0107 84.7889C77.4735 84.5609 76.9591 84.196 76.4676 83.7057C75.9761 83.2154 75.6104 82.7023 75.3818 82.1777C75.1532 81.6532 75.0617 81.1401 75.1417 80.6498C75.2103 80.1595 75.4275 79.7376 75.7932 79.3727C76.0561 79.1105 76.3533 78.928 76.6848 78.8254C77.0163 78.7228 77.3706 78.7114 77.7364 78.7798C77.6221 78.3237 77.5992 77.8904 77.6906 77.4913ZM78.445 82.8277C78.6965 82.8505 78.9365 82.7479 79.1422 82.5426C79.348 82.3374 79.4394 82.1093 79.4166 81.8585C79.3937 81.6076 79.2794 81.3682 79.0508 81.1401C78.8222 80.9121 78.5822 80.7866 78.3193 80.7638C78.0678 80.741 77.8392 80.8322 77.6335 81.0375C77.4277 81.2427 77.3249 81.4822 77.3477 81.733C77.3706 81.9839 77.4963 82.2348 77.7249 82.4628C77.9535 82.6794 78.1935 82.8049 78.445 82.8277ZM80.8796 77.936C80.571 77.9018 80.2852 78.0158 80.0452 78.2553C79.8052 78.4947 79.7023 78.7684 79.7252 79.0877C79.7595 79.3955 79.9195 79.7034 80.2052 79.9885C80.491 80.2735 80.7996 80.4332 81.1082 80.4674C81.4168 80.5016 81.7026 80.3876 81.9426 80.1481C82.1826 79.9087 82.2855 79.635 82.2512 79.3157C82.2169 79.0079 82.0569 78.7 81.7711 78.4149C81.4854 78.1185 81.1882 77.9588 80.8796 77.936Z"
          fill="white"/>
    <path d="M77.9666 72.8964C78.1266 73.5691 78.0809 74.2761 77.8294 75.0058C77.5779 75.7356 77.1093 76.4425 76.4235 77.1267C75.7491 77.7994 75.0405 78.2783 74.309 78.5292C73.5774 78.7914 72.8688 78.8371 72.1944 78.6774C71.52 78.5178 70.9028 78.1643 70.3656 77.6284C69.8284 77.0925 69.4855 76.4881 69.314 75.8154C69.154 75.1427 69.1998 74.4357 69.4512 73.7059C69.7141 72.9762 70.1713 72.2692 70.8571 71.5851C71.5315 70.9009 72.2401 70.4334 72.9716 70.1826C73.7032 69.9203 74.4118 69.8747 75.0862 70.0344C75.7606 70.194 76.3664 70.5475 76.9036 71.072C77.4522 71.6079 77.8065 72.2122 77.9666 72.8964ZM74.2975 72.2464C73.8289 72.3605 73.2803 72.7367 72.6516 73.3639C72.023 73.991 71.6458 74.5497 71.5315 75.0058C71.4172 75.4733 71.5086 75.861 71.8172 76.1575C72.1258 76.4653 72.5144 76.5566 72.9831 76.4425C73.4517 76.3285 74.0003 75.9522 74.629 75.3251C75.2576 74.698 75.6348 74.1506 75.7491 73.6831C75.8634 73.2156 75.7606 72.828 75.4634 72.5201C75.1548 72.2236 74.7662 72.1324 74.2975 72.2464Z"
          fill="white"/>
    <path d="M71.781 66.7387C71.941 67.4114 71.8953 68.1184 71.6438 68.8481C71.3924 69.5779 70.9238 70.2848 70.238 70.969C69.5636 71.6417 68.8549 72.1206 68.1234 72.3715C67.3919 72.6337 66.6832 72.6793 66.0089 72.5197C65.3345 72.3601 64.7173 72.0066 64.1801 71.4707C63.6429 70.9348 63.3 70.3304 63.1285 69.6577C62.9685 68.9849 63.0142 68.278 63.2657 67.5482C63.5285 66.8185 63.9858 66.1115 64.6716 65.4274C65.3459 64.7432 66.0546 64.2757 66.7861 64.0249C67.5176 63.7626 68.2263 63.717 68.9006 63.8766C69.575 64.0363 70.1808 64.3898 70.718 64.9143C71.2667 65.4502 71.621 66.0659 71.781 66.7387ZM68.112 66.1001C67.6433 66.2141 67.0947 66.5904 66.4661 67.2176C65.8374 67.8447 65.4602 68.4034 65.3459 68.8595C65.2316 69.327 65.3231 69.7147 65.6317 70.0112C65.9403 70.319 66.3289 70.4103 66.7975 70.2962C67.2662 70.1822 67.8148 69.8059 68.4434 69.1788C69.0721 68.5516 69.4493 67.9929 69.5636 67.5368C69.6779 67.0693 69.575 66.6816 69.2778 66.3738C68.9692 66.0773 68.5806 65.9861 68.112 66.1001Z"
          fill="white"/>
    <path d="M61.7802 57.5032C62.5003 57.4918 63.2546 57.7769 64.0319 58.3584L65.0263 57.355L66.1121 58.4268L65.152 59.396C65.5749 59.8749 65.9293 60.3766 66.2036 60.9011C66.4893 61.4257 66.6722 61.9046 66.7522 62.3493L64.8548 63.079C64.7634 62.6115 64.5805 62.1326 64.3176 61.6537C64.0547 61.1634 63.7461 60.7415 63.3918 60.388C62.706 59.7039 62.1916 59.5328 61.8487 59.8749C61.6659 60.0574 61.6316 60.2854 61.7459 60.5705C61.8602 60.8555 62.0773 61.2546 62.4088 61.7791C62.786 62.3493 63.0718 62.8624 63.2775 63.2957C63.4832 63.729 63.5632 64.1851 63.5404 64.6754C63.5061 65.1657 63.2775 65.6218 62.8432 66.0665C62.3288 66.5796 61.7002 66.8418 60.9572 66.8418C60.2143 66.8418 59.4484 66.534 58.6598 65.9182L57.6654 66.9102L56.5795 65.8384L57.5511 64.8692C57.2425 64.4929 56.9681 64.1052 56.7395 63.7061C56.5109 63.2957 56.3509 62.908 56.248 62.5203L58.1226 61.7449C58.3969 62.6685 58.8198 63.4097 59.3913 63.9684C59.7456 64.3219 60.0542 64.5271 60.3286 64.5841C60.5914 64.6412 60.8086 64.5841 60.9801 64.4131C61.1515 64.2421 61.1744 64.0254 61.0715 63.7518C60.9686 63.4781 60.74 63.079 60.4086 62.5659C60.0314 61.9844 59.7456 61.4827 59.5399 61.0494C59.3456 60.6161 59.2541 60.16 59.277 59.6697C59.2999 59.1794 59.5285 58.7233 59.9742 58.29C60.4543 57.7655 61.0601 57.5032 61.7802 57.5032Z"
          fill="white"/>
    <path d="M114.507 121.892C118.755 121.892 122.199 118.456 122.199 114.218C122.199 109.98 118.755 106.544 114.507 106.544C110.258 106.544 106.814 109.98 106.814 114.218C106.814 118.456 110.258 121.892 114.507 121.892Z"
          fill="url(#paint3_linear)"/>
    <path d="M120.656 114.219C120.656 117.606 117.901 120.354 114.507 120.354C111.112 120.354 108.357 117.606 108.357 114.219C108.357 110.833 111.112 108.085 114.507 108.085C117.901 108.073 120.656 110.821 120.656 114.219Z"
          fill="#F7931A"/>
    <defs>
        <linearGradient id="paint0_linear" x1="192.368" y1="36.5345" x2="28.2673" y2="201.031"
                        gradientUnits="userSpaceOnUse">
            <stop stop-color="#F9DF7B"/>
            <stop offset="0.2038" stop-color="#B57E10"/>
            <stop offset="0.2643" stop-color="#B78114"/>
            <stop offset="0.3227" stop-color="#BF8C1F"/>
            <stop offset="0.3803" stop-color="#CB9E33"/>
            <stop offset="0.4373" stop-color="#DDB64E"/>
            <stop offset="0.4935" stop-color="#F3D671"/>
            <stop offset="0.5077" stop-color="#F9DF7B"/>
            <stop offset="0.5189" stop-color="#FFF3A6"/>
            <stop offset="0.5934" stop-color="#F9DF7B"/>
            <stop offset="0.8428" stop-color="#B57E10"/>
            <stop offset="0.9493" stop-color="#E5C35C"/>
            <stop offset="1" stop-color="#F9DF7B"/>
        </linearGradient>
        <linearGradient id="paint1_linear" x1="49.9934" y1="49.864" x2="176.883" y2="177.06"
                        gradientUnits="userSpaceOnUse">
            <stop stop-color="#F9DF7B"/>
            <stop offset="0.2038" stop-color="#B57E10"/>
            <stop offset="0.2643" stop-color="#B78114"/>
            <stop offset="0.3227" stop-color="#BF8C1F"/>
            <stop offset="0.3803" stop-color="#CB9E33"/>
            <stop offset="0.4373" stop-color="#DDB64E"/>
            <stop offset="0.4935" stop-color="#F3D671"/>
            <stop offset="0.5077" stop-color="#F9DF7B"/>
            <stop offset="0.5189" stop-color="#FFF3A6"/>
            <stop offset="0.5934" stop-color="#F9DF7B"/>
            <stop offset="0.8428" stop-color="#B57E10"/>
            <stop offset="0.9493" stop-color="#E5C35C"/>
            <stop offset="1" stop-color="#F9DF7B"/>
        </linearGradient>
        <linearGradient id="paint2_linear" x1="26.2951" y1="114.216" x2="202.708" y2="114.216"
                        gradientUnits="userSpaceOnUse">
            <stop stop-color="#F9DF7B"/>
            <stop offset="0.2038" stop-color="#B57E10"/>
            <stop offset="0.2643" stop-color="#B78114"/>
            <stop offset="0.3227" stop-color="#BF8C1F"/>
            <stop offset="0.3803" stop-color="#CB9E33"/>
            <stop offset="0.4373" stop-color="#DDB64E"/>
            <stop offset="0.4935" stop-color="#F3D671"/>
            <stop offset="0.5077" stop-color="#F9DF7B"/>
            <stop offset="0.5189" stop-color="#FFF3A6"/>
            <stop offset="0.5934" stop-color="#F9DF7B"/>
            <stop offset="0.8428" stop-color="#B57E10"/>
            <stop offset="0.9493" stop-color="#E5C35C"/>
            <stop offset="1" stop-color="#F9DF7B"/>
        </linearGradient>
        <linearGradient id="paint3_linear" x1="109.517" y1="109.243" x2="121.153" y2="120.907"
                        gradientUnits="userSpaceOnUse">
            <stop stop-color="#F9DF7B"/>
            <stop offset="0.2038" stop-color="#B57E10"/>
            <stop offset="0.2643" stop-color="#B78114"/>
            <stop offset="0.3227" stop-color="#BF8C1F"/>
            <stop offset="0.3803" stop-color="#CB9E33"/>
            <stop offset="0.4373" stop-color="#DDB64E"/>
            <stop offset="0.4935" stop-color="#F3D671"/>
            <stop offset="0.5077" stop-color="#F9DF7B"/>
            <stop offset="0.5189" stop-color="#FFF3A6"/>
            <stop offset="0.5934" stop-color="#F9DF7B"/>
            <stop offset="0.8428" stop-color="#B57E10"/>
            <stop offset="0.9493" stop-color="#E5C35C"/>
            <stop offset="1" stop-color="#F9DF7B"/>
        </linearGradient>
    </defs>
</svg>
