<svg width="32" height="20" viewBox="0 0 32 20" fill="none" xmlns="http://www.w3.org/2000/svg">
<path fill-rule="evenodd" clip-rule="evenodd" d="M18.7169 7.93795C16.5368 7.96781 14.3628 7.96781 12.1827 7.96781C11.5616 7.96781 10.9225 7.93795 10.3133 7.96781C10.1819 7.96781 9.9848 8.11713 9.9848 8.19477C9.96689 9.45501 9.96689 10.7152 9.96689 12.0292C11.7527 12.0292 13.5027 12.0292 15.2885 12.0292C15.2408 12.292 15.193 12.4891 15.1094 12.6683C14.309 15.0932 11.8005 16.2877 9.10084 15.8458C5.76212 15.2903 3.69557 12.2084 4.30478 8.86968C4.37048 8.39187 4.53175 7.93795 4.69898 7.50791C5.8099 5.08301 8.54539 3.60776 11.251 4.21697C12.2186 4.43199 13.0548 4.87396 13.7536 5.51304C14.7391 4.52755 15.6708 3.59581 16.6861 2.58045C16.6204 2.53267 16.507 2.44906 16.4413 2.36544C14.0821 0.38251 11.3824 -0.35213 8.3483 0.155547C3.9763 0.860323 0.834675 4.30059 0.159762 8.30825C-0.150817 10.0105 -0.0194321 11.8321 0.649508 13.6C2.32186 17.8406 6.59232 20.4447 11.1793 19.9371C13.4251 19.6922 15.4199 18.8918 16.9609 17.2374C19.2663 14.7826 19.8756 11.8321 19.4993 8.57702C19.4336 8.03948 19.2245 7.93795 18.7169 7.93795ZM28.6196 8.24853C28.4225 8.24853 28.1955 8.24853 27.9626 8.24853C27.9626 8.20074 27.9626 8.13504 27.9626 8.11713C27.9626 7.93795 27.9626 7.78863 27.9626 7.65723C27.9626 6.82105 27.9805 5.98488 27.9626 5.13676C27.9626 5.00536 27.8013 4.76048 27.7356 4.76048C26.983 4.72465 26.2126 4.72465 25.4122 4.72465C25.4122 5.74 25.4122 6.68966 25.4122 7.65723C25.4122 7.83641 25.4122 8.03351 25.4122 8.21269C24.2177 8.21269 23.1008 8.21269 21.8883 8.21269C21.8883 8.49341 21.8883 8.67259 21.8883 8.85177C21.9242 9.47292 21.9361 10.112 21.9899 10.7332C22.5931 10.769 23.2023 10.7989 23.8414 10.7989C24.3491 10.8168 24.8747 10.7989 25.4302 10.7989C25.4302 12.0113 25.4302 13.1222 25.4302 14.2391C26.3022 14.2212 27.1025 14.2391 27.9685 14.2391C27.9685 13.0924 27.9685 11.9814 27.9685 10.7989C29.1452 10.7989 30.262 10.7989 31.4088 10.7989C31.4088 10.1299 31.4088 9.50279 31.4088 8.85177C31.4088 8.63675 31.4088 8.43965 31.4088 8.24853C30.489 8.24853 29.5573 8.24853 28.6196 8.24853Z" fill="#262626"/>
</svg>
