<svg width="21" height="20" viewBox="0 0 21 20" fill="none" xmlns="http://www.w3.org/2000/svg">
<path fill-rule="evenodd" clip-rule="evenodd" d="M11.81 2.41038C11.3189 2.34788 10.6984 2.14252 10.5868 2.78985C10.4662 3.46396 11.1627 3.41485 11.6136 3.51307C14.6984 4.18718 15.752 5.28539 16.2654 8.27647C16.2877 8.39701 16.3011 8.55774 16.3011 8.69166C16.3368 9.04434 16.4216 9.36577 16.9618 9.26755C17.2297 9.23184 17.3279 9.08451 17.3413 8.87469C17.377 8.69165 17.3413 8.44612 17.3681 8.27647C17.377 5.39253 14.868 2.78985 11.81 2.41038ZM12.0912 4.772C11.7743 4.772 11.4528 4.80771 11.3323 5.15146C11.1493 5.64253 11.5287 5.77646 11.9082 5.8345C13.1671 6.01753 13.8323 6.75415 13.9662 7.97737C13.9796 8.14702 14.0421 8.28541 14.1136 8.39255C14.2252 8.51309 14.3591 8.5622 14.5288 8.55327C14.6404 8.55327 14.7252 8.51755 14.7966 8.47737C15.0064 8.31666 15.0421 8.02647 15.0154 7.71844C15.0377 6.33896 13.4484 4.73182 12.0912 4.772ZM18.4797 14.464C17.8547 13.9729 17.1716 13.5354 16.5332 13.0801C15.2252 12.2006 14.0243 12.1247 13.0555 13.5578C12.5064 14.3658 11.7341 14.4015 10.9394 14.0488C8.72515 13.0801 7.02425 11.5756 6.01978 9.36131C5.87246 9.01756 5.77424 8.6872 5.76085 8.38363C5.72514 7.79434 5.97067 7.28094 6.63139 6.83004C7.1805 6.47736 7.72068 6.04878 7.68497 5.24967C7.63586 4.20949 5.06442 0.745186 4.03763 0.36572C3.62245 0.218398 3.2028 0.245184 2.77869 0.36572C0.390289 1.16037 -0.587393 3.07109 0.354575 5.3345C0.894757 6.60682 1.47065 7.79433 2.15369 8.91041C5.07781 13.8078 9.38587 17.3792 14.9439 19.7185C15.3234 19.8792 15.752 19.9506 15.9841 19.9998C17.5377 20.0221 19.3502 18.5444 19.877 17.0979C20.3904 15.6872 19.31 15.1515 18.4797 14.464ZM10.8278 1.06215C15.81 1.82108 18.1002 4.147 18.7341 9.05327C18.7341 9.10238 18.7341 9.13809 18.7341 9.1738C18.7698 9.6247 18.685 10.214 19.2832 10.214C19.81 10.2274 19.8324 9.83452 19.8324 9.45506C19.81 9.32113 19.81 9.20952 19.81 9.10237C19.8725 4.46396 15.7475 0.155903 10.9707 0.00858081C10.5912 0.0710811 9.85462 -0.236951 9.79659 0.557696C9.78766 1.08895 10.4127 1.01304 10.8278 1.06215Z" fill="#262626"/>
</svg>
