<svg width="26" height="20" viewBox="0 0 26 20" fill="none" xmlns="http://www.w3.org/2000/svg">
    <path fill-rule="evenodd" clip-rule="evenodd" d="M25.0099 2.37389C24.0999 2.76954 23.1108 3.0366 22.0673 3.17507C23.1405 2.53709 23.9515 1.56281 24.3324 0.365977C23.3432 0.949558 22.2305 1.36993 21.0633 1.59743C20.1385 0.608306 18.7982 0 17.3047 0C14.4857 0 12.1761 2.26508 12.1761 5.04451C12.1761 5.45005 12.2453 5.83086 12.3244 6.19683C8.05144 5.99406 4.26805 3.98615 1.7458 0.919882C1.31058 1.6815 1.04353 2.53215 1.04353 3.45698C1.04353 5.21761 1.9634 6.76558 3.32344 7.66073C2.48269 7.6459 1.69634 7.4184 1.00396 7.03758C1.00396 7.06726 1.00396 7.07715 1.00396 7.10682C1.00396 7.75964 1.12761 8.35311 1.3551 8.92186C1.97825 10.5094 3.40258 11.7013 5.12365 12.0425C4.6736 12.1662 4.24334 12.2305 3.76856 12.2305C3.44215 12.2305 3.11573 12.1909 2.80416 12.1217C3.46687 14.1296 5.35609 15.5935 7.5915 15.6479C5.82592 17.003 3.63008 17.8042 1.23146 17.8042C0.811088 17.8042 0.420376 17.7745 0 17.7349C2.27992 19.1592 4.97528 20 7.86351 20C15.8754 20 20.8259 14.456 22.1167 8.68941C22.3492 7.66073 22.458 6.64194 22.458 5.63798C22.458 5.42037 22.458 5.19288 22.458 4.98516C23.452 4.273 24.3323 3.37785 25.0099 2.37389Z" fill="#262626"/>
</svg>
