<svg width="21" height="20" viewBox="0 0 21 20" fill="none" xmlns="http://www.w3.org/2000/svg">
<path fill-rule="evenodd" clip-rule="evenodd" d="M20.0119 9.49535C19.8694 4.21927 15.5314 0 10.192 0C4.91985 0 0.609541 4.11241 0.391849 9.30932C0.372058 9.43994 0.372057 9.59034 0.372057 9.73283C0.372057 11.5654 0.894518 13.2911 1.78112 14.7675L0 20L5.44627 18.2743C6.85533 19.0461 8.47418 19.4775 10.188 19.4775C15.6145 19.4775 20.0198 15.1237 20.0198 9.73283C20.0237 9.64575 20.0119 9.58243 20.0119 9.49535ZM14.6923 11.7079C14.4429 11.5892 13.2713 11.0034 13.0536 10.9163C12.8161 10.853 12.6618 10.7975 12.4995 11.0469C12.3491 11.2844 11.8821 11.8187 11.7396 11.9691C11.5971 12.1433 11.4585 12.1552 11.229 12.0443C10.9677 11.9256 10.1959 11.6762 9.28557 10.853C8.55729 10.2118 8.07045 9.43994 7.93984 9.21433C7.80922 8.9531 7.91609 8.84623 8.03879 8.70374C8.15753 8.60479 8.28815 8.44251 8.40689 8.2921C8.43855 8.26044 8.47022 8.22878 8.49397 8.18524C8.56125 8.08629 8.59291 8.01108 8.64437 7.90422C8.73144 7.74194 8.69979 7.59945 8.62458 7.49258C8.58104 7.37384 8.0942 6.17851 7.88442 5.71146C7.69048 5.22462 7.48466 5.3117 7.35405 5.3117C7.19968 5.3117 7.04928 5.29191 6.887 5.29191C6.71285 5.29191 6.46349 5.34732 6.24579 5.59667C6.00831 5.83416 5.3869 6.40016 5.3869 7.59153C5.3869 7.86463 5.44231 8.14566 5.52939 8.39501C5.75896 9.25391 6.30121 9.93469 6.37641 10.0574C6.49515 10.2197 8.03483 12.7053 10.4888 13.6592C12.9507 14.6131 12.9507 14.2885 13.3861 14.2569C13.8215 14.2252 14.807 13.6909 15.0129 13.117C15.2068 12.5628 15.2068 12.0879 15.1435 11.977C15.096 11.8939 14.9337 11.8148 14.6923 11.7079ZM10.192 17.9379C8.52167 17.9379 6.95825 17.4391 5.65605 16.5802L2.48565 17.5896L3.50683 14.5419C2.52127 13.1961 1.93153 11.5258 1.93153 9.73283C1.93153 9.45973 1.9434 9.21037 1.97507 8.94122C2.3867 4.78528 5.91332 1.53968 10.192 1.53968C14.5339 1.53968 18.1041 4.87235 18.4287 9.09163C18.4524 9.30932 18.4524 9.52701 18.4524 9.73283C18.4484 14.249 14.7477 17.9379 10.192 17.9379Z" fill="#262626"/>
</svg>
